<?xml version="1.0" encoding="utf-8"?>
<!-- Generator: Adobe Illustrator 22.1.0, SVG Export Plug-In . SVG Version: 6.00 Build 0)  -->
<svg version="1.1" id="Layer_1" xmlns="http://www.w3.org/2000/svg" xmlns:xlink="http://www.w3.org/1999/xlink" x="0px" y="0px"
	 viewBox="0 0 85 85" style="enable-background:new 0 0 85 85;" xml:space="preserve">
<style type="text/css">
	.st0{fill:#FFECB3;}
	.st1{fill:#FFFFFF;}
	.st2{filter:url(#Adobe_OpacityMaskFilter);}
	.st3{mask:url(#mask-2_1_);fill:#424242;}
	.st4{filter:url(#Adobe_OpacityMaskFilter_1_);}
	.st5{mask:url(#mask-4_1_);fill:#424242;}
	.st6{filter:url(#Adobe_OpacityMaskFilter_2_);}
	.st7{mask:url(#mask-6_1_);fill:#424242;}
	.st8{filter:url(#Adobe_OpacityMaskFilter_3_);}
	.st9{mask:url(#mask-8_1_);fill:#424242;}
	.st10{filter:url(#Adobe_OpacityMaskFilter_4_);}
	.st11{mask:url(#mask-10_1_);fill:#424242;}
	.st12{filter:url(#Adobe_OpacityMaskFilter_5_);}
	.st13{mask:url(#mask-12_1_);fill:#424242;}
	.st14{filter:url(#Adobe_OpacityMaskFilter_6_);}
	.st15{mask:url(#mask-14_1_);fill:#424242;}
	.st16{filter:url(#Adobe_OpacityMaskFilter_7_);}
	.st17{mask:url(#mask-16_1_);fill:#424242;}
	.st18{filter:url(#Adobe_OpacityMaskFilter_8_);}
	.st19{mask:url(#mask-18_1_);fill:#424242;}
	.st20{filter:url(#Adobe_OpacityMaskFilter_9_);}
	.st21{mask:url(#mask-20_1_);fill:#424242;}
	.st22{filter:url(#Adobe_OpacityMaskFilter_10_);}
	.st23{mask:url(#mask-22_1_);fill:#424242;}
	.st24{filter:url(#Adobe_OpacityMaskFilter_11_);}
	.st25{mask:url(#mask-24_1_);fill:#424242;}
	.st26{filter:url(#Adobe_OpacityMaskFilter_12_);}
	.st27{mask:url(#mask-26_1_);fill:#424242;}
	.st28{filter:url(#Adobe_OpacityMaskFilter_13_);}
	.st29{mask:url(#mask-28_1_);fill:#424242;}
	.st30{filter:url(#Adobe_OpacityMaskFilter_14_);}
	.st31{mask:url(#mask-30_1_);fill:#424242;}
	.st32{filter:url(#Adobe_OpacityMaskFilter_15_);}
	.st33{mask:url(#mask-32_1_);fill:#424242;}
	.st34{filter:url(#Adobe_OpacityMaskFilter_16_);}
	.st35{mask:url(#mask-34_1_);fill:#424242;}
	.st36{filter:url(#Adobe_OpacityMaskFilter_17_);}
	.st37{mask:url(#mask-36_1_);fill:#424242;}
	.st38{filter:url(#Adobe_OpacityMaskFilter_18_);}
	.st39{mask:url(#mask-38_1_);fill:#424242;}
	.st40{filter:url(#Adobe_OpacityMaskFilter_19_);}
	.st41{mask:url(#mask-40_1_);fill:#424242;}
	.st42{filter:url(#Adobe_OpacityMaskFilter_20_);}
	.st43{mask:url(#mask-42_1_);fill:#424242;}
	.st44{filter:url(#Adobe_OpacityMaskFilter_21_);}
	.st45{mask:url(#mask-44_1_);fill:#424242;}
	.st46{filter:url(#Adobe_OpacityMaskFilter_22_);}
	.st47{mask:url(#mask-46_1_);fill:#424242;}
	.st48{filter:url(#Adobe_OpacityMaskFilter_23_);}
	.st49{mask:url(#mask-48_1_);fill:#424242;}
	.st50{filter:url(#Adobe_OpacityMaskFilter_24_);}
	.st51{mask:url(#mask-50_1_);fill:#424242;}
	.st52{filter:url(#Adobe_OpacityMaskFilter_25_);}
	.st53{mask:url(#mask-52_1_);fill:#424242;}
	.st54{filter:url(#Adobe_OpacityMaskFilter_26_);}
	.st55{mask:url(#mask-54_1_);fill:#424242;}
	.st56{filter:url(#Adobe_OpacityMaskFilter_27_);}
	.st57{mask:url(#mask-56_1_);fill:#424242;}
	.st58{filter:url(#Adobe_OpacityMaskFilter_28_);}
	.st59{mask:url(#mask-58_1_);fill:#424242;}
	.st60{filter:url(#Adobe_OpacityMaskFilter_29_);}
	.st61{mask:url(#mask-60_1_);fill:#424242;}
	.st62{filter:url(#Adobe_OpacityMaskFilter_30_);}
	.st63{mask:url(#mask-62_1_);fill:#424242;}
	.st64{filter:url(#Adobe_OpacityMaskFilter_31_);}
	.st65{mask:url(#mask-64_1_);fill:#424242;}
	.st66{filter:url(#Adobe_OpacityMaskFilter_32_);}
	.st67{mask:url(#mask-66_1_);fill:#424242;}
	.st68{filter:url(#Adobe_OpacityMaskFilter_33_);}
	.st69{mask:url(#mask-68_1_);fill:#424242;}
	.st70{filter:url(#Adobe_OpacityMaskFilter_34_);}
	.st71{mask:url(#mask-70_1_);fill:#424242;}
	.st72{fill:#424242;}
</style>
<title>CENAJLogo</title>
<desc>Created with Sketch.</desc>
<g id="Design">
	<g id="_x30_3---Quienes-Somos" transform="translate(-150.000000, 0.000000)">
		<g id="Header" transform="translate(0.000000, 10.000000)">
			<g id="CENAJLogo" transform="translate(250.000000, 10.000000)">
				<path id="Fill-4" class="st0" d="M-18.4,22.5c0,21.6-17.5,39.1-39.1,39.1c-21.6,0-39.1-17.5-39.1-39.1s17.5-39.1,39.1-39.1
					C-35.9-16.6-18.4,0.9-18.4,22.5"/>
				<polygon id="Path-2" class="st1" points="-76,42.8 -78.7,34.3 -79.8,33.3 -80.9,33.3 -81.8,30.7 -80.4,27.2 -82.8,22.5 
					-83.6,18.1 -83.6,14.8 -80.4,14.1 -78.7,8.7 -77.1,3.3 -77.1,1.7 -75.1,0.3 -72.1,-2 -66.9,-5.7 -60.7,-8.5 -54.8,-9.1 
					-47.3,-6.5 -41.2,-0.3 -37.8,4.1 -35.5,9.9 -34.2,14.8 -34.2,16.9 -33.6,17.4 -31.6,15.3 -30.7,15.3 -30.1,18.1 -31.6,22.5 
					-32.3,26 -32.3,30.7 -33.6,33.3 -34.2,34.3 -37.8,43.6 -37.3,57.9 -45.9,62 -58.3,63.5 -65.9,63.5 -77.1,58.7 -78.7,45.6 				
					"/>
				<g id="Group-113" transform="translate(0.000000, -0.320000)">
					<g id="Group-6" transform="translate(0.000000, 0.029120)">
					</g>
					<g id="Group-112" transform="translate(2.720000, 4.989120)">
						<g id="Group-9">
							<g id="Clip-8">
							</g>
							<defs>
								<filter id="Adobe_OpacityMaskFilter" filterUnits="userSpaceOnUse" x="-96" y="0.7" width="70.1" height="66.2">
									<feColorMatrix  type="matrix" values="1 0 0 0 0  0 1 0 0 0  0 0 1 0 0  0 0 0 1 0"/>
								</filter>
							</defs>
							<mask maskUnits="userSpaceOnUse" x="-96" y="0.7" width="70.1" height="66.2" id="mask-2_1_">
								<g class="st2">
									<path id="path-1_1_" class="st1" d="M-99.8,20c0,21.9,17.7,39.6,39.6,39.6c21.9,0,39.6-17.7,39.6-39.6
										c0-21.9-17.7-39.6-39.6-39.6C-82.1-19.6-99.8-1.9-99.8,20z"/>
								</g>
							</mask>
							<path id="Fill-7" class="st3" d="M-50,64.3c0.1-1.4,0.3-2.8,0.4-4.2c0.1,0,0.1,0,0.2,0c-0.1,1.4-0.2,2.8-0.3,4.2L-50,64.3z
								 M-51.5,65.2c0-1.6,0-3,0-4.3c0-0.5,0.1-1.1,0.1-1.6c-0.2-1.4,0.8-2,1.9-2.8c-0.2,2.7-0.4,5.2-0.8,7.7
								C-50.4,64.5-51,64.8-51.5,65.2z M-53.3,54.6c0.9-1.5,1.4-1.8,2.3-1.3C-51.4,54.5-52.4,55.1-53.3,54.6z M-55.2,61
								c1-0.7,1.9-1.3,2.9-2c-0.1,0.9-0.1,1.6-0.2,2.4c0.1,0,0.3,0,0.4,0v3.7c-0.1,0-0.1,0-0.2,0v-3.3l-0.2,0
								c-0.1,0.8-0.1,1.5-0.2,2.3c-0.1,1.4-0.2,1.5-1.7,1.6c0-1.2-0.1-2.4,0-3.6c0-0.4,0.4-0.7,0.8-1.2c-0.7,0-1,0.2-1,0.8
								c-0.1,1.1-0.2,2.2-0.2,3.3c0,0.3-0.1,0.5-0.1,0.8l-0.2,0c0.1-1.5,0.1-3,0.2-4.5c-0.1,0-0.2,0-0.2,0c-0.1,1.2-0.2,2.3-0.3,3.5
								c-0.1,1.4-0.2,1.5-1.7,1.4c0-1.6,0-3.3,0-4.9c0-0.8,0.2-1.6,0.1-2.4c-0.1-1.3,0.7-2,1.7-2.6c0.3-0.1,0.6-0.1,1-0.1l0.1,0.3
								c-0.8,0.6-1.6,1.2-2.6,1.9c0.4,0.1,0.6,0.1,0.8,0.1c-0.2,0.2-0.3,0.5-0.6,0.9c2-0.2,2.6-2.3,4.5-2.3
								c-0.3,0.3-0.6,0.6-0.9,0.8c-0.6,0.4-1.2,0.8-1.7,1.2C-55,59.5-55.3,60-55.2,61z M-57.5,64.9c-0.5-2.4-0.1-4.7,0-7.1
								c0.1,0,0.2,0,0.3,0C-57.3,60.1-57.4,62.5-57.5,64.9z M-58,62.9c0,0.7,0,1.5-0.1,2.2c0,1.2,0,1.2-1.3,1.1c-0.2-4-0.4-8,0.2-12
								c0.1,0,0.2,0,0.3,0c0,0.2,0.1,0.4,0.1,0.6c0,0.3-0.1,0.5-0.2,0.8c0.3,0,0.8,0,1-0.2c0.6-0.7,1.1-0.3,1.9,0.2
								c-0.7,0.4-1.2,0.7-2,1.2C-58,58.7-58,60.8-58,62.9z M-56.2,52.2c-0.4,0.7-0.8,0.8-1.5,0.4C-57.3,51.9-57.2,51.8-56.2,52.2z
								 M-53,52.6c-0.6,0.5-1.1,1-1.6,1.4c-0.4-0.2-0.7-0.4-1.1-0.6C-55,52.3-54.3,52-53,52.6z M-50,49c0,0,0.1,0.1,0.1,0.1
								c-0.6,0.6-1.1,1.1-1.7,1.7c-0.6,0.7-1.1,0.7-2.1,0C-52.3,50.2-51.1,49.6-50,49z M-43.2,43c0.1,0.1,0.1,0.1,0.2,0.2
								c-1.6,3.4-4.2,6.1-6.5,9c-0.4-0.2-0.7-0.3-1.3-0.5C-48.2,48.7-45.7,45.9-43.2,43z M-61.1,66.3H-63c0.4-3.8,0.7-7.6,1.1-11.3
								c0.1,0,0.2,0,0.3,0C-61.5,58.2-60.4,64-61.1,66.3z M-63.6,66.3c-0.5-0.1-0.9-0.1-1.5-0.2c0.2-4.1,0.4-8.2,0.6-12.3
								c-0.2,0-0.4,0-0.9,0c0.9-0.7,1.5-1.2,2.2-1.7c0.1,0.1,0.2,0.1,0.2,0.2c-0.3,1.8-0.7,3.6-1,5.5c-0.3,1.9-0.5,3.9-0.7,5.8
								c-0.1,0.6,0.1,1,0.7,1.3C-63.3,65.1-63.4,65.7-63.6,66.3z M-65.4,55.9c-0.2,3.3-0.4,6.6-0.6,10.1c-0.5-0.1-0.8-0.1-1.4-0.2
								c0.2-1.9,0.3-3.7,0.6-5.5c0.1-0.6,0-1-0.5-1.4c-1-0.7-1.9-1.5-2.8-2.3c-0.1-0.1-0.3-0.1-0.5-0.1c-0.2-0.1-0.3-0.2-0.5-0.2
								c0.1-0.1,0.3-0.4,0.4-0.4c0.4,0.1,0.9,0.2,1.2,0.4c0.9,0.7,1.8,1.5,2.7,2.3c0.6-1.1,0.1-1.5-0.6-2c-0.6-0.4-1.1-0.8-1.6-1.2
								c0.1-0.1,0.2-0.3,0.3-0.4l2.3,1.9c0.1,0,0.1-0.1,0.2-0.1c-0.1-0.3-0.2-0.6-0.4-0.9c0.2,0.1,0.5,0.2,0.7,0.2
								c0.1,0,0.1-0.1,0.2-0.1c-0.2-0.2-0.4-0.5-0.6-0.7c-0.2-0.2-0.5-0.3-0.7-0.5c-0.1-0.1-0.3-0.5-0.3-0.6
								c0.1-0.2,0.4-0.3,0.6-0.3c0.5,0.1,1,0.4,1.4,0.5C-65.3,55-65.4,55.5-65.4,55.9z M-68,65.6c-0.1,0.1-0.3,0.1-0.4,0.2
								c-0.2-0.2-0.5-0.4-0.5-0.6c0.1-1.9,0.3-3.8,0.4-5.6c0-0.2,0.2-0.4,0.4-0.5c0,0.1-0.1,0.3-0.1,0.4
								C-67.2,61.5-68.4,63.5-68,65.6z M-69.3,59.1c-0.2,2-0.4,4-0.5,6.1c-1.4-0.2-1.4-0.2-1.3-1.5c0.1-1,0.1-2,0.2-3
								c0-0.3,0.3-0.7,0.3-0.9c-0.5-1,0.1-2-0.1-3.1C-69.9,57.5-69.2,58-69.3,59.1z M-72.1,64.5c-1.3-0.1-1.3-0.2-1.3-1.4
								c0.1-2.1,0.3-4.3,0.4-6.4c0.4-0.2,0.8-0.4,1.4-0.7C-71.7,58.9-71.9,61.7-72.1,64.5z M-74.1,50.4c-1.2-1.8-2.3-3.5-3.5-5.3
								c-0.3-0.4-0.6-0.8-0.9-1.3c0.3-0.4,0.6-0.4,1,0c0,0.3-0.2,0.7,0,0.9c1.1,1.5,2.2,2.9,3.3,4.3c0.5,0.6,1.2,1.1,1.1,2.3
								C-73.5,50.9-73.9,50.7-74.1,50.4z M-74,63.1c0.1,0.1,0.1,0.5,0.2,0.9c-0.9-0.4-1.7-0.7-2.2-1c0.2-0.5,0.4-0.9,0.5-1.3
								c0.2-3.4,0.5-6.8,0.7-10.3c1.1,0.3,1.2,0.5,0.9,1.4c-0.3,0.9-0.4,1.9,0.1,2.8c0.1,0.2,0.2,0.4,0.2,0.6
								c-0.2,1.8-0.4,3.6-0.6,5.4C-74.4,62.2-74.5,62.7-74,63.1z M-76.7,47.9c0.8,1,0.9,2,0.9,3.1c-0.1,2-0.4,4.1-0.6,6.1
								C-77.3,56.1-77.5,51.3-76.7,47.9z M-77.9,48.1c-0.1-0.9-0.2-1.7-0.3-2.6C-77.2,46.4-77.6,47.2-77.9,48.1z M-78.8,39.3
								c1.2,1.8,2.2,3.8,3.5,5.5c1.3,1.7,2.9,3.3,4.4,4.9c-0.6,0.5-1.1,0.6-1.7-0.1c-1.1-1.5-2.2-2.9-3.3-4.3
								c-0.5-0.6-1.1-1-1.6-1.5c0,0,0,0,0,0c-0.5-1.4-1-2.9-1.6-4.3C-78.9,39.4-78.8,39.4-78.8,39.3z M-82.2,59.2
								c0-0.1,0-0.4,0.1-0.8c-0.3,0.3-0.4,0.4-0.6,0.6c-0.1-0.2-0.2-0.3-0.2-0.5c0-0.5,0-1-0.7-1.2c-0.2,0-0.2-0.4-0.4-0.8
								c-0.2,0.2-0.3,0.4-0.5,0.6c0.3-1.3-0.8-1.8-1.4-2.9c-0.2,0.6-0.3,1-0.4,1.4c-0.1,0-0.1,0-0.2-0.1c0.1-0.6,0.3-1.2,0.5-1.9
								c1.1,0.7,1.4,2.3,2.7,2.8c0.7,0.7,1.5,1.6,2.3,2.3c0.6,0.5,1.2,1,1.3,2.1C-80.6,60.3-81.4,59.8-82.2,59.2z M-71.5,54.4
								c-0.4,0.2-0.8,0.4-1.3,0.6c0.1-0.6,0.1-1,0.2-1.6C-72.3,53.8-72,54-71.5,54.4z M-70,53.6c-0.9,0.2-1.3-0.3-1.7-1.1
								C-70.7,52.3-70.5,53.2-70,53.6z M-67.7,52.5c-0.7,0.8-1.8,0.5-2.4-0.8C-69.1,51.2-68.4,51.9-67.7,52.5z M-86.8,55l-0.4,0
								l0.3-2.1C-86.1,53.6-87.3,54.2-86.8,55z M-83.8,27.1c0-0.9,0.2-1.7,0.2-2.6l0.2,0c0.2,1.2,0.5,2.3,0.7,3.5
								C-83.4,28.1-83.8,27.8-83.8,27.1z M-86,11.7c0-1.2,0.4-1.7,1.2-1.7c0.8,0,1.2,0.7,1.4,1.8c0.6,2.9-0.1,5.7-0.3,8.6
								C-85.1,17.6-86.1,14.8-86,11.7z M-26.3,40.9c-0.4,1.1-0.9,2.1-1.4,3.1c-2.4,5-5.6,9.3-9.7,13c-0.2,0.2-0.4,0.3-0.6,0.4
								c-0.8,0.7-1.6,1.4-2.4,2c-2.4,1.8-5.1,3.3-7.9,4.4c-0.3,0.1-0.6,0.2-1.1,0.4c0.3-3.1,0.4-6,0.8-8.9c0.1-1.1,0.8-2.1,1.3-3.2
								c-0.4,0.4-0.8,0.8-1.3,1.2c-0.1-0.1-0.2-0.1-0.2-0.2c0.4-0.5,0.7-1.1,1.2-1.6c1.2-1.2,2.2-2.4,2.9-3.9c0-0.1,0.1-0.1,0.1-0.2
								c1.2-1.7,2.4-3.3,3.5-4.9c0,0.5-0.1,1.1-0.1,1.7c-0.2,3.4-0.5,6.8-0.7,10.1c-0.1,1.1,0,2.3,0,3.5c0,0.6,0.4,0.7,0.8,0.4
								c0.9-0.7,2.1-0.4,3.1-0.8c0.1-1.4,1.1-2,2.2-2.5l-0.4,0c0-0.8,1-2,1.5-2.1c0.6-0.8,1.1-1.3,1.7-1.9c0.1,0.3,0.1,0.4,0.2,0.5
								c0.1,0,0.1,0,0.2,0c0-0.3,0.1-0.6,0.1-0.9c-0.1-1,0.9-2.4,1.8-2.6c0.2,0,0.4-0.2,0.5-0.4c0.7-1.1,1.3-2.3,2-3.5
								c-3.7-2.4-7.7-4.2-11.1-7c0.4-0.9,0.7-1.8,1.1-2.7c0.4-1,0.7-2,1.1-3c0.3-0.8,0.5-1.5,1.3-2c1.1-0.7,1.2-2.1,1.3-3.4
								c0.1-1,0.1-1.9,0-2.9c-0.2-2.1,0.2-4.2,1.1-6.1c0.8-1.7,1.2-3.4,0.7-5.3c-0.2-0.6-0.5-1.2-0.8-1.9c-1.5,0.3-2,1.5-2.9,2.3
								c0.3-0.5-0.4-0.8,0-1.5c0.7-1.3-0.4-3.8-2-4.3c0.2,0.3,0.4,0.6,0.6,0.9c0,0.4,0,0.7,0,1.1c0,0.7,0.1,1.4,0,2
								c-0.1,1.3,0.7,2,1.5,2.6c0.7-0.8,1.4-1.5,2.2-2.4c0.8,1.1,1,2.2,0.8,3.2c-0.2,0.8-0.4,1.6-0.8,2.3c-1.3,2.6-1.6,5.4-1.3,8.3
								c0.1,1.2,0,2.4-0.9,3.3c0.6-3.6,0.8-7.2,0.4-10.8c-0.1,0-0.2,0-0.3,0c0,0.4,0,0.9,0,1.3c-0.2,2.9-0.2,5.8-0.7,8.6
								c-0.6,2.9-1.8,5.8-2.8,8.6c-0.3,0.9-1,1.7-1.5,2.5c-1,1.4-1.9,2.9-3,4.1c-3,3.4-6.6,5.8-11,7c-5.2,1.3-9.9,0.1-14.3-2.7
								c-1.2-0.8-2.4-1.8-3.5-2.7c-0.3-0.3-0.5-0.8-0.6-1c-0.5-0.5-1-0.8-1.3-1.2c-3.3-4.1-5.3-8.9-6.3-14c-1.3-6.3-1.1-12.7,0-19
								c0.1-0.6-0.1-1.2,0-1.8c0-0.3,0.2-0.6,0.3-0.9c0.1-0.3,0.2-0.5,0.3-0.9c-0.1,0-0.3-0.1-0.4-0.1c0.4-0.5,0.9-1.1,1.5-1.8
								c-0.4-0.1-0.7-0.2-1-0.2c0.3-0.2,0.6-0.4,0.9-0.6l0-0.2H-81c0.5-0.4,1-0.7,1.5-1.1c-0.9-0.2-1.8,0.2-2.5,1
								c-0.9,1.2-1.2,2.7-1.2,4.2c0,0.1,0.1,0.3,0,0.4c-0.8,0.7-0.6,1.4-0.3,2.2c0.1,0.2-0.1,0.5-0.1,0.7c-0.6,0-1.2-0.1-1.8,0
								c-0.7,0.1-1.2,0.5-1.2,1.3c-0.1,3.6,0.2,7.1,2.1,10.3c0.6,1,0.7,1.8,0.2,2.9c-0.6,1.3-0.6,2.7-0.1,4.1
								c0.3,0.8,0.8,1.5,1.8,1.4c0.2,0,0.4,0.2,0.5,0.4c0.5,1.7,1,3.4,1.6,5.1c0.2,0.6,0.1,1-0.4,1.4c-1.8,1.6-4,2.8-6.2,3.7
								c-1.5,0.7-3,1.2-4.5,1.9c-0.4,0.2-0.6,0.5-0.9,0.8c-0.6,0.6-1.1,1.2-1.7,1.9c-0.5-1-1-2.1-1.4-3.1H-96
								c2.1,5.4,5.2,10.3,9.5,14.6c3.5,3.4,7.3,6.4,12,8.1c0.4,0.1,0.7,0.6,1,0.6c1.2,0,2.1,1.1,3.4,0.9c0.6,0.9,1.6,0.2,2.4,0.7
								c0.6,0.3,1.3,0.4,2,0.5c0.2,0,0.4,0,0.6,0c0.2,0,0.5-0.2,0.7-0.1c0.9,0.5,1.8,0.1,2.7,0.1c0.2,0,0.3,0,0.5,0.1
								c0.5,0.1,1,0.2,1.5,0.2c1.2-0.1,2.3-0.4,3.5-0.6c1.3-0.2,2.7-0.4,4-0.8c8.1-2.3,14.8-6.8,20-13.5c2.7-3.5,4.8-7.2,6.3-11
								H-26.3z"/>
						</g>
						<g id="Group-12">
							<g id="Clip-11">
							</g>
							<defs>
								<filter id="Adobe_OpacityMaskFilter_1_" filterUnits="userSpaceOnUse" x="-75.8" y="4.9" width="15.9" height="14.6">
									<feColorMatrix  type="matrix" values="1 0 0 0 0  0 1 0 0 0  0 0 1 0 0  0 0 0 1 0"/>
								</filter>
							</defs>
							<mask maskUnits="userSpaceOnUse" x="-75.8" y="4.9" width="15.9" height="14.6" id="mask-4_1_">
								<g class="st4">
									<path id="path-3_1_" class="st1" d="M-99.8,20c0,21.9,17.7,39.6,39.6,39.6c21.9,0,39.6-17.7,39.6-39.6
										c0-21.9-17.7-39.6-39.6-39.6C-82.1-19.6-99.8-1.9-99.8,20"/>
								</g>
							</mask>
							<path id="Fill-10" class="st5" d="M-74.5,19.5c1.1,0.2,1.9-0.3,2.7-0.9c1-0.8,2.1-0.9,3.3-0.5c0.4,0.2,0.8,0.4,1.3,0.4
								c0.6,0.1,1.2,0.1,1.9,0.1c-0.9-2.1-2.4-2.7-4.2-1.9c-0.5,0.2-1.1,0.5-1.6,0.7c-1.1,0.4-1.9,0.2-2.6-0.7
								c-1.1-1.3-1.2-2.4-0.2-4c0.2,0.3,0.5,0.6,0.7,1c0.1-0.1,0.2-0.1,0.3-0.2c-0.1-0.6-0.3-1.2-0.4-1.8C-73.1,12-73,12-73,12.1
								c0.3,1.4,1.3,2.1,2.5,2.8c0.7,0.4,1.4,0.8,2.3,1c1,0.2,2-0.4,2.9,0.2c0.1,0.1,0.3-0.2,0.5-0.3c0.3-0.2,0.7-0.3,1-0.5
								c0.4-0.5,0.9-1,1.4-1.6c0.7-1,1.3-2,1.9-2.9c0.1,0.4,0.2,0.9,0.4,1.4c0.1,0,0.2,0,0.3-0.1c-0.2-1.8-0.5-3.6-0.7-5.5l-0.2,0
								c-0.1,1.1-0.2,2.2-0.3,3.4c-0.1,1.1-0.4,2.2-1.5,2.9c0.2-0.8,0.4-1.5,0.6-2.2c-0.1,0-0.2,0-0.3,0.1c-0.2-0.2-0.4-0.4-0.6-0.6
								c-0.2-0.2-0.4-0.5-0.7-0.9c-0.1,0.4-0.2,0.6-0.3,0.8c-0.6-0.6-2-0.6-2.5,0c-1-0.5-2-1-2.8-1.4c-0.9-1.5-1.8-2.8-2.6-4.1
								C-72,4.9-72.1,5-72.2,5c0.3,0.6,0.6,1.2,0.8,1.8c-1.3,0.4-1.7-1.2-2.8-1.4c-0.1,0.1-0.1,0.1-0.2,0.2c0.4,0.5,0.8,1,1.3,1.5
								c-0.3,0-0.5,0.1-0.9,0.2c0.9,0.6,1.7,1.1,2.4,1.6c-0.1,0.1-0.1,0.2-0.2,0.3c-0.3-0.2-0.7-0.5-1-0.7c-0.1,0.3-0.2,0.6-0.3,0.9
								c-0.2-0.2-0.3-0.4-0.6-0.6c-0.5,1.5-1,2.8-1.4,4.1c-0.2,0.5-0.1,1.1-0.1,1.7c0.1,1.4,0.5,2.6,1.8,3.5
								c-1.4-0.1-1.4-1.6-2.4-2.3c0,1.8,1.1,2.5,2.6,3.2C-74.5,18.8-74.5,18.8-74.5,19.5"/>
						</g>
						<g id="Group-15">
							<g id="Clip-14">
							</g>
							<defs>
								<filter id="Adobe_OpacityMaskFilter_2_" filterUnits="userSpaceOnUse" x="-56.9" y="8.1" width="17.6" height="12">
									<feColorMatrix  type="matrix" values="1 0 0 0 0  0 1 0 0 0  0 0 1 0 0  0 0 0 1 0"/>
								</filter>
							</defs>
							<mask maskUnits="userSpaceOnUse" x="-56.9" y="8.1" width="17.6" height="12" id="mask-6_1_">
								<g class="st6">
									<path id="path-5_1_" class="st1" d="M-99.8,20c0,21.9,17.7,39.6,39.6,39.6c21.9,0,39.6-17.7,39.6-39.6
										c0-21.9-17.7-39.6-39.6-39.6C-82.1-19.6-99.8-1.9-99.8,20"/>
								</g>
							</mask>
							<path id="Fill-13" class="st7" d="M-41.3,9.2c-0.7-0.1-1.4,0.3-2.1,0.5c-0.1-0.1-0.1-0.1-0.2-0.2c0.5-0.4,0.9-0.9,1.4-1.4
								c-0.6-0.3-1,0.1-1.4,0.5C-44,9-44.5,9.4-45.1,9.9c0.2-0.5,0.3-0.9,0.4-1.2l-0.1-0.1c-0.8,0.8-1.6,1.6-2.5,2.5
								c0-0.1-0.1-0.1-0.1-0.2c0.3-0.5,0.6-1,0.9-1.4c-0.1,0-0.1-0.1-0.2-0.1c-0.4,0.4-0.9,0.8-1.3,1.2c0,0-0.1-0.1-0.1-0.1
								c0.2-0.3,0.3-0.6,0.5-0.9c-0.4,0-0.7,0.2-0.9,0.4c-0.4,0.4-0.8,0.9-1.3,1.3c-0.3,0.3-0.8,0.3-1.4,0.6
								c0.2-0.6,0.3-0.8,0.5-1.2c-1.7,0.6-3.2,1.6-4.9,0.3v2.1c-0.1,0-0.2,0-0.3,0c-0.2-1.6-0.5-3.1-0.8-5c-0.1,0.5-0.3,0.8-0.3,1
								c0.3,1.8,0.5,3.6,0.9,5.4c0.1,0.3,0.6,0.6,0.9,0.9c0.1,0.1,0.1,0.1,0.1,0.2c0.7,1.1,2.4,1.5,3.6,0.9c0.8-0.4,1.7-0.6,2.6-0.9
								l0.1,0.2l-0.4,0.5c0,0.1,0.1,0.2,0.1,0.3c0.6-0.2,1.3-0.3,1.9-0.6c0.5-0.2,0.9-0.5,1.4-0.7c0.2-0.1,0.8,0.1,0.8,0.2
								c0.1,0.8,0.7,0.7,1.1,0.7c0.5,0.1,1,0.1,1.5,0.1c-0.4,2.9-3,3.9-5.2,2.1c-1.8-1.4-3.3-1-4.5,1c0.3,0,0.6,0,0.9-0.1
								c1.2-0.4,2.3-0.3,3.4,0.1c0.6,0.2,1.1,0.3,1.7,0.4c0.8,0.2,1.5,0.1,2.2-0.4c0.9-0.6,1.5-1.3,2-2.4c0.3-0.8,0.6-1.3-0.3-1.8
								c0.4-0.2,0.7-0.4,0.9-0.5c-0.3-0.6-0.5-0.9-0.7-1.3c-0.6-1-0.5-1.2,0.7-1.3c0.2,0,0.3,0,0.5,0c-0.2-0.7-0.7-0.7-1.2-0.6
								c-0.4,0-0.9,0-1.5,0c1.2-1.3,2.7-1.1,4.2-1.5C-40.1,9.7-40.7,9.2-41.3,9.2"/>
						</g>
						<g id="Group-18">
							<g id="Clip-17">
							</g>
							<defs>
								<filter id="Adobe_OpacityMaskFilter_3_" filterUnits="userSpaceOnUse" x="-81" y="-14.2" width="43.3" height="12.7">
									<feColorMatrix  type="matrix" values="1 0 0 0 0  0 1 0 0 0  0 0 1 0 0  0 0 0 1 0"/>
								</filter>
							</defs>
							<mask maskUnits="userSpaceOnUse" x="-81" y="-14.2" width="43.3" height="12.7" id="mask-8_1_">
								<g class="st8">
									<path id="path-7_1_" class="st1" d="M-99.8,20c0,21.9,17.7,39.6,39.6,39.6c21.9,0,39.6-17.7,39.6-39.6
										c0-21.9-17.7-39.6-39.6-39.6C-82.1-19.6-99.8-1.9-99.8,20"/>
								</g>
							</mask>
							<path id="Fill-16" class="st9" d="M-39.9-4.7c-1.1-0.1-2-0.2-3-0.2C-41.9-5.4-41-5.3-39.9-4.7 M-76-5.3
								c0.1-0.2,0.2-0.5,0.3-0.5c0.6,0.1,0.9-0.4,1.3-0.7c3.2-2.7,6.7-4.9,10.7-6.1c4.7-1.4,9.1-0.4,13.2,2.2c1.3,0.8,2.4,2,3.6,3
								c1.2,1,2.4,2.1,3.7,3.3c1.8-0.6,3.8-0.2,4.5,1.1c-2.5-1.1-3.3-1.2-4.2-0.4c2,0,3.7,0.7,5.2,2c0.3-3.2-2.4-5.1-6-4.1
								c-0.7-0.9-1.4-1.9-2.1-2.7c-3.5-4.1-7.9-6.2-13.4-5.9c-4.4,0.2-8.4,1.9-12,4.3c-1.2,0.8-2.3,1.7-3.5,2.6
								c-1.4-1.2-3-1.1-4.6-0.5c-0.6,0.2-1.2,0.4-1.1,1.2c0,0.2-0.2,0.4-0.3,0.6c-0.1,0.3-0.2,0.7-0.4,1.2
								C-79.2-5.2-77.7-6.1-76-5.3"/>
						</g>
						<g id="Group-21">
							<g id="Clip-20">
							</g>
							<defs>
								<filter id="Adobe_OpacityMaskFilter_4_" filterUnits="userSpaceOnUse" x="-67.7" y="23.6" width="15.9" height="9.2">
									<feColorMatrix  type="matrix" values="1 0 0 0 0  0 1 0 0 0  0 0 1 0 0  0 0 0 1 0"/>
								</filter>
							</defs>
							<mask maskUnits="userSpaceOnUse" x="-67.7" y="23.6" width="15.9" height="9.2" id="mask-10_1_">
								<g class="st10">
									<path id="path-9_1_" class="st1" d="M-99.8,20c0,21.9,17.7,39.6,39.6,39.6c21.9,0,39.6-17.7,39.6-39.6
										c0-21.9-17.7-39.6-39.6-39.6C-82.1-19.6-99.8-1.9-99.8,20"/>
								</g>
							</mask>
							<path id="Fill-19" class="st11" d="M-53.5,27.6c0.5,0.7,1.2,1.3,1.8,1.9c-0.2-1.5-1.2-2.4-2.2-3.3c-0.3-0.2-0.5-0.6-0.6-0.9
								c-0.3-0.7-0.7-1.4-1.6-1.5c0.2,0.4,0.5,0.7,0.7,1.1c0.2,0.4,0.1,0.9,0.2,1.3c-0.4,0-0.8,0-1.2,0c-0.3-0.1-0.6-0.2-0.9-0.4V27
								c-0.8,0.4-1.7,0.9-2.5,1.1c-1.2,0.3-1.8-0.8-2.7-1.3c-1.2-0.6-0.6-1.9-0.8-2.9c-0.2,0.3-0.4,0.6-0.5,1
								c-0.1,0.4-0.2,0.7-0.3,1.2c-0.3-0.1-0.8-0.2-0.8-0.2c0.1-0.7,0.2-1.4,0.4-2.2c-0.4,0.4-0.8,0.6-0.9,1
								c-0.2,0.8-0.8,1.3-1.3,1.8c-0.6,0.6-1,1.3-0.9,2.4c0.3-0.5,0.5-1,0.8-1.2c0.3-0.3,0.8-0.4,1.2-0.6c0.3,0.2,0.7,0.4,1.2,0.7
								c0,0,0,0,0,0c0,0,0,0,0,0c0,0,0,0,0,0c0.3,0.1,0.5,0.3,0.8,0.4c-1.1,2.1-1.5,4.1-0.9,4.8c0.2-0.8,0.3-1.5,0.6-2.2
								c0.2-0.7,0.6-1.3,0.9-2c0.1,0,0.2,0.1,0.2,0.1c-0.3,1.2-1,2.3-0.7,3.7c0.9-1.1,0.5-2.6,1.7-3.5c-0.1,0.4-0.1,0.6-0.1,0.8
								c0.5-0.1,1.1-0.5,1.5-0.3c0.4,0.1,0.6,0.8,0.8,1.1c0.2-0.3,0.4-0.7,0.6-1c0.3,0.3,0.6,0.6,0.7,1c0.2,0.7,0.3,1.4,0.4,2.1
								c0.1,0,0.1,0,0.2,0c-0.1-1.2-0.1-2.3-0.2-3.5c0.1,0,0.2,0,0.3-0.1c0.3,0.7,0.6,1.4,0.9,2c0.1,0,0.2-0.1,0.2-0.1
								c-0.2-0.8-0.5-1.6-0.7-2.5c1.1,0.2,1.8-0.4,2.5-0.9C-54.2,27-53.9,27-53.5,27.6"/>
						</g>
						<g id="Group-24">
							<g id="Clip-23">
							</g>
							<defs>
								<filter id="Adobe_OpacityMaskFilter_5_" filterUnits="userSpaceOnUse" x="-54.7" y="29.6" width="6.9" height="11.6">
									<feColorMatrix  type="matrix" values="1 0 0 0 0  0 1 0 0 0  0 0 1 0 0  0 0 0 1 0"/>
								</filter>
							</defs>
							<mask maskUnits="userSpaceOnUse" x="-54.7" y="29.6" width="6.9" height="11.6" id="mask-12_1_">
								<g class="st12">
									<path id="path-11_1_" class="st1" d="M-99.8,20c0,21.9,17.7,39.6,39.6,39.6c21.9,0,39.6-17.7,39.6-39.6
										c0-21.9-17.7-39.6-39.6-39.6C-82.1-19.6-99.8-1.9-99.8,20"/>
								</g>
							</mask>
							<path id="Fill-22" class="st13" d="M-51.7,37c0.2,0.5,0.6,0.8,0.9,1.2c0.2,0.2,0.3,0.5,0.4,0.8c-1.4-0.4-1.9-1.6-2.8-2.5
								C-52.4,36.1-52,36.3-51.7,37 M-51.1,39.8c0.4,0.5,0.8,1,1.3,1.3c0.3,0.2,1,0.1,1.3-0.1c0.4-0.3,0.6-0.9,0.7-1.3
								c0-0.2-0.5-0.6-0.9-0.7c-1-0.4-1.8-1-2.4-2c-0.4-0.8-0.2-1.2,0.8-1.5c0-0.6-0.1-1.2-0.1-1.8c0.1,0,0.2,0,0.2,0
								c0.1,0.7,0.3,1.3,0.4,2c1.2-0.7,1.3-2.6,0.2-4c0,0.4,0,0.7,0,1c0,0.3-0.1,0.6-0.1,1.1c-0.7-1.3-0.7-2.8-1.9-3.6
								c-0.1,0.4-0.2,0.7-0.3,1c-0.5-0.6-1-1.1-1.4-1.7c-0.1,0-0.1,0.1-0.2,0.1c0.6,1.3,1.1,2.6,1.7,3.9c0,0,0.1,0,0.1,0v-1.8
								c0.2,0.2,0.4,0.3,0.5,0.4c0.1,0.4,0.2,0.8,0.2,1.2c0,0.2-0.1,0.7-0.2,0.7c-0.3,0.1-0.6,0-0.9-0.2c-0.3-0.2-0.6-0.5-0.9-0.8
								c0,0.4,0,0.6,0,0.9c-0.3-0.4-0.5-0.7-0.8-1c-0.1,0-0.1,0.1-0.2,0.1c0,0.3,0.1,0.6,0.1,0.9c-0.2-0.1-0.3-0.2-0.5-0.4
								c-0.1,1.1-0.2,2-0.3,3c0.1,0,0.2-0.1,0.3-0.1c0.4,0.3,0.9,0.5,1.2,0.8C-52.5,38.1-51.8,39-51.1,39.8"/>
						</g>
						<g id="Group-27">
							<g id="Clip-26">
							</g>
							<defs>
								<filter id="Adobe_OpacityMaskFilter_6_" filterUnits="userSpaceOnUse" x="-70.3" y="28.9" width="7.7" height="7.5">
									<feColorMatrix  type="matrix" values="1 0 0 0 0  0 1 0 0 0  0 0 1 0 0  0 0 0 1 0"/>
								</filter>
							</defs>
							<mask maskUnits="userSpaceOnUse" x="-70.3" y="28.9" width="7.7" height="7.5" id="mask-14_1_">
								<g class="st14">
									<path id="path-13_1_" class="st1" d="M-99.8,20c0,21.9,17.7,39.6,39.6,39.6c21.9,0,39.6-17.7,39.6-39.6
										c0-21.9-17.7-39.6-39.6-39.6C-82.1-19.6-99.8-1.9-99.8,20"/>
								</g>
							</mask>
							<path id="Fill-25" class="st15" d="M-68.9,35.7c0.1-0.3,0.3-0.5,0.3-0.6c0.5-0.1,0.8-0.2,1.1-0.2c0,0.2,0.1,0.4,0.1,0.7
								c0.2-0.3,0.4-0.5,0.4-0.6c0.5,0.3,1,0.7,1.6,1c0.1,0.1,0.4-0.1,0.6-0.2c0,0.1,0.1,0.3,0.1,0.6c0.3-0.3,0.6-0.5,0.8-0.7
								c1,0.4,1.3,0.2,1.2-0.8c-0.6,0.1-0.8-0.1-0.8-1c-0.2,0.1-0.5,0.3-0.7,0.4c0-0.5,0.1-1,0.1-1.4c-0.1,0-0.1-0.1-0.2-0.1
								c-0.3,0.3-0.5,0.6-0.8,0.9c-0.1-0.5-0.3-0.6-0.8-0.1c0.2-1.2,0.4-2.1,0.5-3.1c-0.3,0.3-0.5,0.6-0.6,1
								c-0.1,0.8-0.2,1.6-0.3,2.4c0,0.2-0.2,0.3-0.3,0.4c-0.1,0-0.1-0.1-0.2-0.1c0.1-1,0.2-2.1,0.3-3.1l-0.3-0.2
								c-0.5,0.7-1.1,1.3-1.6,2c-0.1,0-0.1,0-0.2-0.1c0.2-1.3,0.4-2.6,0.7-3.9c-0.8,0-0.9,0.4-1,1c0,0.6-0.1,1.2-0.2,1.9
								c-0.1,0-0.2,0-0.2,0c0-0.3,0-0.6-0.1-0.9c-0.4,0.7-0.7,1.5-0.8,2.2C-70.5,34.8-70.5,34.8-68.9,35.7"/>
						</g>
						<g id="Group-30">
							<g id="Clip-29">
							</g>
							<defs>
								<filter id="Adobe_OpacityMaskFilter_7_" filterUnits="userSpaceOnUse" x="-65.9" y="42.5" width="12.5" height="6.3">
									<feColorMatrix  type="matrix" values="1 0 0 0 0  0 1 0 0 0  0 0 1 0 0  0 0 0 1 0"/>
								</filter>
							</defs>
							<mask maskUnits="userSpaceOnUse" x="-65.9" y="42.5" width="12.5" height="6.3" id="mask-16_1_">
								<g class="st16">
									<path id="path-15_1_" class="st1" d="M-99.8,20c0,21.9,17.7,39.6,39.6,39.6c21.9,0,39.6-17.7,39.6-39.6
										c0-21.9-17.7-39.6-39.6-39.6C-82.1-19.6-99.8-1.9-99.8,20"/>
								</g>
							</mask>
							<path id="Fill-28" class="st17" d="M-59.7,48.8c3.6-0.2,6.6-3.1,6.3-6.3c-1.3,2.5-2.9,4.7-5.8,5c-3.1,0.3-4.9-1.8-6.6-4
								C-65.8,46.4-62.7,49-59.7,48.8"/>
						</g>
						<g id="Group-33">
							<g id="Clip-32">
							</g>
							<defs>
								<filter id="Adobe_OpacityMaskFilter_8_" filterUnits="userSpaceOnUse" x="-82.9" y="-5.1" width="6" height="6.5">
									<feColorMatrix  type="matrix" values="1 0 0 0 0  0 1 0 0 0  0 0 1 0 0  0 0 0 1 0"/>
								</filter>
							</defs>
							<mask maskUnits="userSpaceOnUse" x="-82.9" y="-5.1" width="6" height="6.5" id="mask-18_1_">
								<g class="st18">
									<path id="path-17_1_" class="st1" d="M-99.8,20c0,21.9,17.7,39.6,39.6,39.6c21.9,0,39.6-17.7,39.6-39.6
										c0-21.9-17.7-39.6-39.6-39.6C-82.1-19.6-99.8-1.9-99.8,20"/>
								</g>
							</mask>
							<path id="Fill-31" class="st19" d="M-78.6-1.1c-0.1,0-0.3-0.2-0.4-0.2c0.1,0,0.3-0.1,0.6-0.1c-0.2-0.3-0.3-0.5-0.4-0.7
								c0.3-0.1,0.5-0.1,0.7-0.2c0-0.1,0-0.2,0-0.3c-0.6,0-1.1-0.1-1.7-0.1c0,0,0-0.1,0-0.1c0.8-0.1,1.6-0.3,2.3-0.4
								c0.2-0.5,0.5-1.1,0.7-1.6c-1.2-0.5-3.4-0.1-4.1,1c-0.4,0.6-0.6,1.3-0.9,2.1c0.3-0.1,0.5-0.1,0.6-0.1c-0.5,1-1,2.1-1.6,3.3
								C-81.4,0.6-80.1-0.2-78.6-1.1"/>
						</g>
						<g id="Group-36">
							<g id="Clip-35">
							</g>
							<defs>
								<filter id="Adobe_OpacityMaskFilter_9_" filterUnits="userSpaceOnUse" x="-41.4" y="-1.2" width="4.6" height="8.1">
									<feColorMatrix  type="matrix" values="1 0 0 0 0  0 1 0 0 0  0 0 1 0 0  0 0 0 1 0"/>
								</filter>
							</defs>
							<mask maskUnits="userSpaceOnUse" x="-41.4" y="-1.2" width="4.6" height="8.1" id="mask-20_1_">
								<g class="st20">
									<path id="path-19_1_" class="st1" d="M-99.8,20c0,21.9,17.7,39.6,39.6,39.6c21.9,0,39.6-17.7,39.6-39.6
										c0-21.9-17.7-39.6-39.6-39.6C-82.1-19.6-99.8-1.9-99.8,20"/>
								</g>
							</mask>
							<path id="Fill-34" class="st21" d="M-38.4,0.1c-0.8-0.5-1.6-0.9-2.4-1.3c-0.2-0.1-0.4,0-0.7,0.1c0,0.1,0,0.1,0,0.2
								c0.3,0.2,0.6,0.4,1,0.6c-0.1,0.1-0.2,0.2-0.3,0.2c0.6,0.5,1.2,1,1.9,1.6c-0.6-0.2-1.1-0.4-1.6-0.6c0,0.1-0.1,0.2-0.1,0.3
								c0.5,0.3,1,0.7,1.5,1c1,0.6,1.1,0.7,1.2,1.3c-0.6-0.3-1.2-0.6-1.8-0.9c-0.1,0.1-0.1,0.2-0.2,0.2c0.3,0.3,0.5,0.6,0.8,0.9
								c-1.1,0.4,0.1,0.7,0.2,1.1c0.1,1.1,1.2,1.4,2,2.1c0-1.2,0.2-2.3,0-3.2C-37,2.5-37.6,1.5-38,0.4C-38,0.3-38.2,0.2-38.4,0.1"/>
						</g>
						<g id="Group-39">
							<g id="Clip-38">
							</g>
							<defs>
								<filter id="Adobe_OpacityMaskFilter_10_" filterUnits="userSpaceOnUse" x="-52.8" y="20" width="6" height="4.6">
									<feColorMatrix  type="matrix" values="1 0 0 0 0  0 1 0 0 0  0 0 1 0 0  0 0 0 1 0"/>
								</filter>
							</defs>
							<mask maskUnits="userSpaceOnUse" x="-52.8" y="20" width="6" height="4.6" id="mask-22_1_">
								<g class="st22">
									<path id="path-21_1_" class="st1" d="M-99.8,20c0,21.9,17.7,39.6,39.6,39.6c21.9,0,39.6-17.7,39.6-39.6
										c0-21.9-17.7-39.6-39.6-39.6C-82.1-19.6-99.8-1.9-99.8,20"/>
								</g>
							</mask>
							<path id="Fill-37" class="st23" d="M-47.4,21.2c-0.3,0.1-0.5,0.3-0.8,0.5c-0.5,0.3-1,0.6-1.5,0c-0.3-0.4-1-0.5-1.3,0
								c0.6,0.5,1.2,1,1.8,1.4c0.1,0.1,0.4,0.2,0.6,0.1c0.3-0.1,0.5-0.2,1-0.4c-0.6,1-1.8,1.3-2.6,0.6c-0.6-0.5-1.1-1.3-1.6-1.9
								c-0.3-0.5-0.6-1-0.8-1.5c-0.2,0.3-0.3,0.7-0.1,0.9c0.8,1.2,1.6,2.4,2.6,3.5c0.5,0.5,2.6,0.1,3.1-0.4
								C-46.7,23.5-46.9,21.8-47.4,21.2"/>
						</g>
						<g id="Group-42">
							<g id="Clip-41">
							</g>
							<defs>
								<filter id="Adobe_OpacityMaskFilter_11_" filterUnits="userSpaceOnUse" x="-72" y="19.7" width="6.2" height="3.5">
									<feColorMatrix  type="matrix" values="1 0 0 0 0  0 1 0 0 0  0 0 1 0 0  0 0 0 1 0"/>
								</filter>
							</defs>
							<mask maskUnits="userSpaceOnUse" x="-72" y="19.7" width="6.2" height="3.5" id="mask-24_1_">
								<g class="st24">
									<path id="path-23_1_" class="st1" d="M-99.8,20c0,21.9,17.7,39.6,39.6,39.6c21.9,0,39.6-17.7,39.6-39.6
										c0-21.9-17.7-39.6-39.6-39.6C-82.1-19.6-99.8-1.9-99.8,20"/>
								</g>
							</mask>
							<path id="Fill-40" class="st25" d="M-70.7,23c1.7,0.8,5.1-0.8,4.9-3.3c-0.5,0.4-1,0.7-1.5,1.1l0,0c0,0,0,0,0,0v0
								c-1.5,1-3.1,1.1-4.7,0.1C-72,21.9-71.6,22.6-70.7,23"/>
						</g>
						<g id="Group-45">
							<g id="Clip-44">
							</g>
							<defs>
								<filter id="Adobe_OpacityMaskFilter_12_" filterUnits="userSpaceOnUse" x="-63.2" y="16.6" width="7.1" height="1.5">
									<feColorMatrix  type="matrix" values="1 0 0 0 0  0 1 0 0 0  0 0 1 0 0  0 0 0 1 0"/>
								</filter>
							</defs>
							<mask maskUnits="userSpaceOnUse" x="-63.2" y="16.6" width="7.1" height="1.5" id="mask-26_1_">
								<g class="st26">
									<path id="path-25_1_" class="st1" d="M-99.8,20c0,21.9,17.7,39.6,39.6,39.6c21.9,0,39.6-17.7,39.6-39.6
										c0-21.9-17.7-39.6-39.6-39.6C-82.1-19.6-99.8-1.9-99.8,20"/>
								</g>
							</mask>
							<path id="Fill-43" class="st27" d="M-63.2,17.5c0.6,0,1,0,1.4,0c1.6,0,3.3-0.2,4.8,0.6c0.2,0.1,0.5,0,0.9-0.1
								C-57.5,16.4-61.4,16.1-63.2,17.5"/>
						</g>
						<g id="Group-48">
							<g id="Clip-47">
							</g>
							<defs>
								<filter id="Adobe_OpacityMaskFilter_13_" filterUnits="userSpaceOnUse" x="-57.8" y="33.2" width="2.8" height="3.7">
									<feColorMatrix  type="matrix" values="1 0 0 0 0  0 1 0 0 0  0 0 1 0 0  0 0 0 1 0"/>
								</filter>
							</defs>
							<mask maskUnits="userSpaceOnUse" x="-57.8" y="33.2" width="2.8" height="3.7" id="mask-28_1_">
								<g class="st28">
									<path id="path-27_1_" class="st1" d="M-99.8,20c0,21.9,17.7,39.6,39.6,39.6c21.9,0,39.6-17.7,39.6-39.6
										c0-21.9-17.7-39.6-39.6-39.6C-82.1-19.6-99.8-1.9-99.8,20"/>
								</g>
							</mask>
							<path id="Fill-46" class="st29" d="M-57.2,35.7c0.1,0.2,0.2,0.4,0.2,0.6c0.1,0,0.1,0,0.2,0c0-0.2,0.1-0.3,0.1-0.5
								c0,0.9,0.5,1.3,1.2,0.9c0.6-0.3,0.7-0.8,0.5-1.3c-0.1-0.3-0.5-0.4-0.8-0.7c-0.2-0.2-0.4-0.5-0.5-0.7
								c-0.1-0.3-0.2-0.6-0.3-0.9C-57,34-57,34-57.7,34.8c-0.2,0.2-0.1,0.7-0.1,1.1C-57.4,35.8-57.3,35.7-57.2,35.7"/>
						</g>
						<g id="Group-51">
							<g id="Clip-50">
							</g>
							<defs>
								<filter id="Adobe_OpacityMaskFilter_14_" filterUnits="userSpaceOnUse" x="-57.9" y="6.5" width="1.3" height="7.9">
									<feColorMatrix  type="matrix" values="1 0 0 0 0  0 1 0 0 0  0 0 1 0 0  0 0 0 1 0"/>
								</filter>
							</defs>
							<mask maskUnits="userSpaceOnUse" x="-57.9" y="6.5" width="1.3" height="7.9" id="mask-30_1_">
								<g class="st30">
									<path id="path-29_1_" class="st1" d="M-99.8,20c0,21.9,17.7,39.6,39.6,39.6c21.9,0,39.6-17.7,39.6-39.6
										c0-21.9-17.7-39.6-39.6-39.6C-82.1-19.6-99.8-1.9-99.8,20"/>
								</g>
							</mask>
							<path id="Fill-49" class="st31" d="M-56.6,14.4c-0.4-2.6-0.8-5.3-1.2-7.9C-57.8,9.2-58.2,12-56.6,14.4"/>
						</g>
						<g id="Group-54">
							<g id="Clip-53">
							</g>
							<defs>
								<filter id="Adobe_OpacityMaskFilter_15_" filterUnits="userSpaceOnUse" x="-42" y="-2.8" width="4.1" height="2.4">
									<feColorMatrix  type="matrix" values="1 0 0 0 0  0 1 0 0 0  0 0 1 0 0  0 0 0 1 0"/>
								</filter>
							</defs>
							<mask maskUnits="userSpaceOnUse" x="-42" y="-2.8" width="4.1" height="2.4" id="mask-32_1_">
								<g class="st32">
									<path id="path-31_1_" class="st1" d="M-99.8,20c0,21.9,17.7,39.6,39.6,39.6c21.9,0,39.6-17.7,39.6-39.6
										c0-21.9-17.7-39.6-39.6-39.6C-82.1-19.6-99.8-1.9-99.8,20"/>
								</g>
							</mask>
							<path id="Fill-52" class="st33" d="M-39.2-1.9C-40.1-2.5-41-3.1-42-2.6c1.3,0.7,2.7,1.5,4.1,2.3C-37.8-1.2-38.6-1.6-39.2-1.9
								"/>
						</g>
						<g id="Group-57">
							<g id="Clip-56">
							</g>
							<defs>
								<filter id="Adobe_OpacityMaskFilter_16_" filterUnits="userSpaceOnUse" x="-63.3" y="15.5" width="4.8" height="1.2">
									<feColorMatrix  type="matrix" values="1 0 0 0 0  0 1 0 0 0  0 0 1 0 0  0 0 0 1 0"/>
								</filter>
							</defs>
							<mask maskUnits="userSpaceOnUse" x="-63.3" y="15.5" width="4.8" height="1.2" id="mask-34_1_">
								<g class="st34">
									<path id="path-33_1_" class="st1" d="M-99.8,20c0,21.9,17.7,39.6,39.6,39.6c21.9,0,39.6-17.7,39.6-39.6
										c0-21.9-17.7-39.6-39.6-39.6C-82.1-19.6-99.8-1.9-99.8,20"/>
								</g>
							</mask>
							<path id="Fill-55" class="st35" d="M-63.3,16.7c1.6-0.3,3.2-0.6,4.8-0.9c0-0.1,0-0.2-0.1-0.2C-60.8,15.3-62.6,15.7-63.3,16.7
								"/>
						</g>
						<g id="Group-60">
							<g id="Clip-59">
							</g>
							<defs>
								<filter id="Adobe_OpacityMaskFilter_17_" filterUnits="userSpaceOnUse" x="-61" y="32.6" width="1.8" height="3.4">
									<feColorMatrix  type="matrix" values="1 0 0 0 0  0 1 0 0 0  0 0 1 0 0  0 0 0 1 0"/>
								</filter>
							</defs>
							<mask maskUnits="userSpaceOnUse" x="-61" y="32.6" width="1.8" height="3.4" id="mask-36_1_">
								<g class="st36">
									<path id="path-35_1_" class="st1" d="M-99.8,20c0,21.9,17.7,39.6,39.6,39.6c21.9,0,39.6-17.7,39.6-39.6
										c0-21.9-17.7-39.6-39.6-39.6C-82.1-19.6-99.8-1.9-99.8,20"/>
								</g>
							</mask>
							<path id="Fill-58" class="st37" d="M-59.6,35.2c0.1,0.2,0.2,0.4,0.4,0.6c0,0,0.1,0,0.1,0c-0.1-1.1-0.3-2.1-0.4-3.2
								c-0.1,0-0.2,0-0.3,0c0,0.2,0,0.3,0,0.5c0.1,0.7,0.1,1.4-0.7,1.8c-0.2,0.1-0.3,0.6-0.5,1.1c0.5-0.1,0.7-0.1,0.9-0.2
								C-59.9,35.7-59.8,35.4-59.6,35.2"/>
						</g>
						<g id="Group-63">
							<g id="Clip-62">
							</g>
							<defs>
								<filter id="Adobe_OpacityMaskFilter_18_" filterUnits="userSpaceOnUse" x="-58.6" y="33" width="0.5" height="4.5">
									<feColorMatrix  type="matrix" values="1 0 0 0 0  0 1 0 0 0  0 0 1 0 0  0 0 0 1 0"/>
								</filter>
							</defs>
							<mask maskUnits="userSpaceOnUse" x="-58.6" y="33" width="0.5" height="4.5" id="mask-38_1_">
								<g class="st38">
									<path id="path-37_1_" class="st1" d="M-99.8,20c0,21.9,17.7,39.6,39.6,39.6c21.9,0,39.6-17.7,39.6-39.6
										c0-21.9-17.7-39.6-39.6-39.6C-82.1-19.6-99.8-1.9-99.8,20"/>
								</g>
							</mask>
							<path id="Fill-61" class="st39" d="M-58.4,37.5c0.1,0,0.2,0,0.2,0V33c-0.2,0.3-0.3,0.6-0.5,0.9
								C-58.5,35.1-58.5,36.3-58.4,37.5"/>
						</g>
						<g id="Group-66">
							<g id="Clip-65">
							</g>
							<defs>
								<filter id="Adobe_OpacityMaskFilter_19_" filterUnits="userSpaceOnUse" x="-43.3" y="22.6" width="1.2" height="2">
									<feColorMatrix  type="matrix" values="1 0 0 0 0  0 1 0 0 0  0 0 1 0 0  0 0 0 1 0"/>
								</filter>
							</defs>
							<mask maskUnits="userSpaceOnUse" x="-43.3" y="22.6" width="1.2" height="2" id="mask-40_1_">
								<g class="st40">
									<path id="path-39_1_" class="st1" d="M-99.8,20c0,21.9,17.7,39.6,39.6,39.6c21.9,0,39.6-17.7,39.6-39.6
										c0-21.9-17.7-39.6-39.6-39.6C-82.1-19.6-99.8-1.9-99.8,20"/>
								</g>
							</mask>
							<path id="Fill-64" class="st41" d="M-42.4,24.6c0.2-0.7,0.6-1.3-0.1-2C-43.6,23.9-43.6,24.1-42.4,24.6"/>
						</g>
						<g id="Group-69">
							<g id="Clip-68">
							</g>
							<defs>
								<filter id="Adobe_OpacityMaskFilter_20_" filterUnits="userSpaceOnUse" x="-71.7" y="32" width="1.4" height="2.9">
									<feColorMatrix  type="matrix" values="1 0 0 0 0  0 1 0 0 0  0 0 1 0 0  0 0 0 1 0"/>
								</filter>
							</defs>
							<mask maskUnits="userSpaceOnUse" x="-71.7" y="32" width="1.4" height="2.9" id="mask-42_1_">
								<g class="st42">
									<path id="path-41_1_" class="st1" d="M-99.8,20c0,21.9,17.7,39.6,39.6,39.6c21.9,0,39.6-17.7,39.6-39.6
										c0-21.9-17.7-39.6-39.6-39.6C-82.1-19.6-99.8-1.9-99.8,20"/>
								</g>
							</mask>
							<path id="Fill-67" class="st43" d="M-71.4,34.9c0.1-0.3,0.2-0.6,0.4-0.9c0.1-0.2,0.2-0.4,0.3-0.5c0.5-0.4,0.6-0.9,0.1-1.5
								c-0.3,1-1.2,1.7-1,2.8C-71.6,34.8-71.5,34.9-71.4,34.9"/>
						</g>
						<g id="Group-72">
							<g id="Clip-71">
							</g>
							<defs>
								<filter id="Adobe_OpacityMaskFilter_21_" filterUnits="userSpaceOnUse" x="-55.2" y="28.6" width="1.2" height="2.3">
									<feColorMatrix  type="matrix" values="1 0 0 0 0  0 1 0 0 0  0 0 1 0 0  0 0 0 1 0"/>
								</filter>
							</defs>
							<mask maskUnits="userSpaceOnUse" x="-55.2" y="28.6" width="1.2" height="2.3" id="mask-44_1_">
								<g class="st44">
									<path id="path-43_1_" class="st1" d="M-99.8,20c0,21.9,17.7,39.6,39.6,39.6c21.9,0,39.6-17.7,39.6-39.6
										c0-21.9-17.7-39.6-39.6-39.6C-82.1-19.6-99.8-1.9-99.8,20"/>
								</g>
							</mask>
							<path id="Fill-70" class="st45" d="M-55.2,28.6c0.4,0.8,0.7,1.5,1,2.3C-53.7,29.5-54.3,28.5-55.2,28.6"/>
						</g>
						<g id="Group-75">
							<g id="Clip-74">
							</g>
							<defs>
								<filter id="Adobe_OpacityMaskFilter_22_" filterUnits="userSpaceOnUse" x="-55.9" y="29.1" width="1.5" height="2.4">
									<feColorMatrix  type="matrix" values="1 0 0 0 0  0 1 0 0 0  0 0 1 0 0  0 0 0 1 0"/>
								</filter>
							</defs>
							<mask maskUnits="userSpaceOnUse" x="-55.9" y="29.1" width="1.5" height="2.4" id="mask-46_1_">
								<g class="st46">
									<path id="path-45_1_" class="st1" d="M-99.8,20c0,21.9,17.7,39.6,39.6,39.6c21.9,0,39.6-17.7,39.6-39.6
										c0-21.9-17.7-39.6-39.6-39.6C-82.1-19.6-99.8-1.9-99.8,20"/>
								</g>
							</mask>
							<path id="Fill-73" class="st47" d="M-54.5,31.4c-0.2-0.9-0.3-1.9-1.5-2.3l1.2,2.4C-54.6,31.5-54.6,31.4-54.5,31.4"/>
						</g>
						<g id="Group-78">
							<g id="Clip-77">
							</g>
							<defs>
								<filter id="Adobe_OpacityMaskFilter_23_" filterUnits="userSpaceOnUse" x="-60.9" y="3.8" width="0.4" height="2.5">
									<feColorMatrix  type="matrix" values="1 0 0 0 0  0 1 0 0 0  0 0 1 0 0  0 0 0 1 0"/>
								</filter>
							</defs>
							<mask maskUnits="userSpaceOnUse" x="-60.9" y="3.8" width="0.4" height="2.5" id="mask-48_1_">
								<g class="st48">
									<path id="path-47_1_" class="st1" d="M-99.8,20c0,21.9,17.7,39.6,39.6,39.6c21.9,0,39.6-17.7,39.6-39.6
										c0-21.9-17.7-39.6-39.6-39.6C-82.1-19.6-99.8-1.9-99.8,20"/>
								</g>
							</mask>
							<path id="Fill-76" class="st49" d="M-60.9,3.8v2.5C-60.5,5.5-60.3,4.6-60.9,3.8"/>
						</g>
						<g id="Group-81">
							<g id="Clip-80">
							</g>
							<defs>
								<filter id="Adobe_OpacityMaskFilter_24_" filterUnits="userSpaceOnUse" x="-67.6" y="28.4" width="1" height="1.9">
									<feColorMatrix  type="matrix" values="1 0 0 0 0  0 1 0 0 0  0 0 1 0 0  0 0 0 1 0"/>
								</filter>
							</defs>
							<mask maskUnits="userSpaceOnUse" x="-67.6" y="28.4" width="1" height="1.9" id="mask-50_1_">
								<g class="st50">
									<path id="path-49_1_" class="st1" d="M-99.8,20c0,21.9,17.7,39.6,39.6,39.6c21.9,0,39.6-17.7,39.6-39.6
										c0-21.9-17.7-39.6-39.6-39.6C-82.1-19.6-99.8-1.9-99.8,20"/>
								</g>
							</mask>
							<path id="Fill-79" class="st51" d="M-66.9,28.4c-0.2,0.6-1,1-0.5,1.9C-66.4,29.1-66.4,28.8-66.9,28.4"/>
						</g>
						<g id="Group-84">
							<g id="Clip-83">
							</g>
							<defs>
								<filter id="Adobe_OpacityMaskFilter_25_" filterUnits="userSpaceOnUse" x="-66.3" y="28" width="0.9" height="1.7">
									<feColorMatrix  type="matrix" values="1 0 0 0 0  0 1 0 0 0  0 0 1 0 0  0 0 0 1 0"/>
								</filter>
							</defs>
							<mask maskUnits="userSpaceOnUse" x="-66.3" y="28" width="0.9" height="1.7" id="mask-52_1_">
								<g class="st52">
									<path id="path-51_1_" class="st1" d="M-99.8,20c0,21.9,17.7,39.6,39.6,39.6c21.9,0,39.6-17.7,39.6-39.6
										c0-21.9-17.7-39.6-39.6-39.6C-82.1-19.6-99.8-1.9-99.8,20"/>
								</g>
							</mask>
							<path id="Fill-82" class="st53" d="M-66.3,29.7c0.3-0.3,0.5-0.5,0.8-0.8c0-0.3,0.1-0.6,0.1-0.9
								C-66.3,28.2-66.3,28.9-66.3,29.7"/>
						</g>
						<g id="Group-87">
							<g id="Clip-86">
							</g>
							<defs>
								<filter id="Adobe_OpacityMaskFilter_26_" filterUnits="userSpaceOnUse" x="-65.5" y="27.7" width="1" height="1.9">
									<feColorMatrix  type="matrix" values="1 0 0 0 0  0 1 0 0 0  0 0 1 0 0  0 0 0 1 0"/>
								</filter>
							</defs>
							<mask maskUnits="userSpaceOnUse" x="-65.5" y="27.7" width="1" height="1.9" id="mask-54_1_">
								<g class="st54">
									<path id="path-53_1_" class="st1" d="M-99.8,20c0,21.9,17.7,39.6,39.6,39.6c21.9,0,39.6-17.7,39.6-39.6
										c0-21.9-17.7-39.6-39.6-39.6C-82.1-19.6-99.8-1.9-99.8,20"/>
								</g>
							</mask>
							<path id="Fill-85" class="st55" d="M-65.5,28.9C-65.5,28.9-65.5,28.9-65.5,28.9C-65.5,28.9-65.5,28.9-65.5,28.9
								C-65.4,28.9-65.4,28.9-65.5,28.9C-65.4,28.9-65.4,28.9-65.5,28.9L-65.5,28.9c0,0.2,0,0.4,0,0.6c0.9-0.6,1.1-0.9,1-1.9
								C-64.8,28.1-65.1,28.5-65.5,28.9C-65.5,28.9-65.5,28.9-65.5,28.9"/>
						</g>
						<g id="Group-90">
							<g id="Clip-89">
							</g>
							<defs>
								<filter id="Adobe_OpacityMaskFilter_27_" filterUnits="userSpaceOnUse" x="-48.3" y="33.2" width="0.6" height="2.1">
									<feColorMatrix  type="matrix" values="1 0 0 0 0  0 1 0 0 0  0 0 1 0 0  0 0 0 1 0"/>
								</filter>
							</defs>
							<mask maskUnits="userSpaceOnUse" x="-48.3" y="33.2" width="0.6" height="2.1" id="mask-56_1_">
								<g class="st56">
									<path id="path-55_1_" class="st1" d="M-99.8,20c0,21.9,17.7,39.6,39.6,39.6c21.9,0,39.6-17.7,39.6-39.6
										c0-21.9-17.7-39.6-39.6-39.6C-82.1-19.6-99.8-1.9-99.8,20"/>
								</g>
							</mask>
							<path id="Fill-88" class="st57" d="M-47.9,33.2c-0.1,0-0.3,0-0.4,0c0.1,0.7,0.1,1.4,0.2,2c0.1,0,0.2,0,0.3,0
								C-47.8,34.6-47.8,33.9-47.9,33.2"/>
						</g>
						<g id="Group-93">
							<g id="Clip-92">
							</g>
							<defs>
								<filter id="Adobe_OpacityMaskFilter_28_" filterUnits="userSpaceOnUse" x="-69.2" y="20.1" width="1.9" height="0.7">
									<feColorMatrix  type="matrix" values="1 0 0 0 0  0 1 0 0 0  0 0 1 0 0  0 0 0 1 0"/>
								</filter>
							</defs>
							<mask maskUnits="userSpaceOnUse" x="-69.2" y="20.1" width="1.9" height="0.7" id="mask-58_1_">
								<g class="st58">
									<path id="path-57_1_" class="st1" d="M-99.8,20c0,21.9,17.7,39.6,39.6,39.6c21.9,0,39.6-17.7,39.6-39.6
										c0-21.9-17.7-39.6-39.6-39.6C-82.1-19.6-99.8-1.9-99.8,20"/>
								</g>
							</mask>
							<path id="Fill-91" class="st59" d="M-68.2,20.2c-0.3,0.1-0.5,0.1-1,0.3c0.4,0.2,0.5,0.3,0.6,0.3c0.4,0,0.9,0,1.3,0
								c0-0.2,0-0.4,0-0.6C-67.7,20.2-68,20.2-68.2,20.2"/>
						</g>
						<g id="Group-96">
							<g id="Clip-95">
							</g>
							<defs>
								<filter id="Adobe_OpacityMaskFilter_29_" filterUnits="userSpaceOnUse" x="-43.1" y="18.2" width="1.4" height="1.2">
									<feColorMatrix  type="matrix" values="1 0 0 0 0  0 1 0 0 0  0 0 1 0 0  0 0 0 1 0"/>
								</filter>
							</defs>
							<mask maskUnits="userSpaceOnUse" x="-43.1" y="18.2" width="1.4" height="1.2" id="mask-60_1_">
								<g class="st60">
									<path id="path-59_1_" class="st1" d="M-99.8,20c0,21.9,17.7,39.6,39.6,39.6c21.9,0,39.6-17.7,39.6-39.6
										c0-21.9-17.7-39.6-39.6-39.6C-82.1-19.6-99.8-1.9-99.8,20"/>
								</g>
							</mask>
							<path id="Fill-94" class="st61" d="M-41.7,18.2c-0.5,0.4-1,0.8-1.4,1.1C-42,19.4-41.6,19.1-41.7,18.2"/>
						</g>
						<g id="Group-99">
							<g id="Clip-98">
							</g>
							<defs>
								<filter id="Adobe_OpacityMaskFilter_30_" filterUnits="userSpaceOnUse" x="-62.4" y="33.7" width="0.7" height="1.9">
									<feColorMatrix  type="matrix" values="1 0 0 0 0  0 1 0 0 0  0 0 1 0 0  0 0 0 1 0"/>
								</filter>
							</defs>
							<mask maskUnits="userSpaceOnUse" x="-62.4" y="33.7" width="0.7" height="1.9" id="mask-62_1_">
								<g class="st62">
									<path id="path-61_1_" class="st1" d="M-99.8,20c0,21.9,17.7,39.6,39.6,39.6c21.9,0,39.6-17.7,39.6-39.6
										c0-21.9-17.7-39.6-39.6-39.6C-82.1-19.6-99.8-1.9-99.8,20"/>
								</g>
							</mask>
							<path id="Fill-97" class="st63" d="M-62.2,35.6c0.5-0.5,0.7-1.1,0.2-1.9c-0.2,0.6-0.3,1.2-0.5,1.8
								C-62.3,35.6-62.3,35.6-62.2,35.6"/>
						</g>
						<g id="Group-102">
							<g id="Clip-101">
							</g>
							<defs>
								<filter id="Adobe_OpacityMaskFilter_31_" filterUnits="userSpaceOnUse" x="-37.7" y="12" width="1.6" height="1.7">
									<feColorMatrix  type="matrix" values="1 0 0 0 0  0 1 0 0 0  0 0 1 0 0  0 0 0 1 0"/>
								</filter>
							</defs>
							<mask maskUnits="userSpaceOnUse" x="-37.7" y="12" width="1.6" height="1.7" id="mask-64_1_">
								<g class="st64">
									<path id="path-63_1_" class="st1" d="M-99.8,20c0,21.9,17.7,39.6,39.6,39.6c21.9,0,39.6-17.7,39.6-39.6
										c0-21.9-17.7-39.6-39.6-39.6C-82.1-19.6-99.8-1.9-99.8,20"/>
								</g>
							</mask>
							<path id="Fill-100" class="st65" d="M-37.7,12c0.1,1.1,0.5,1.6,1.6,1.7C-36.7,13.1-37.1,12.6-37.7,12"/>
						</g>
						<g id="Group-105">
							<g id="Clip-104">
							</g>
							<defs>
								<filter id="Adobe_OpacityMaskFilter_32_" filterUnits="userSpaceOnUse" x="-61.7" y="34.1" width="0.7" height="1.7">
									<feColorMatrix  type="matrix" values="1 0 0 0 0  0 1 0 0 0  0 0 1 0 0  0 0 0 1 0"/>
								</filter>
							</defs>
							<mask maskUnits="userSpaceOnUse" x="-61.7" y="34.1" width="0.7" height="1.7" id="mask-66_1_">
								<g class="st66">
									<path id="path-65_1_" class="st1" d="M-99.8,20c0,21.9,17.7,39.6,39.6,39.6c21.9,0,39.6-17.7,39.6-39.6
										c0-21.9-17.7-39.6-39.6-39.6C-82.1-19.6-99.8-1.9-99.8,20"/>
								</g>
							</mask>
							<path id="Fill-103" class="st67" d="M-61.7,35.8c0.1,0,0.2,0,0.3,0.1c0.6-0.4,0.5-1.1,0.2-1.7
								C-61.4,34.7-61.5,35.2-61.7,35.8"/>
						</g>
						<g id="Group-108">
							<g id="Clip-107">
							</g>
							<defs>
								<filter id="Adobe_OpacityMaskFilter_33_" filterUnits="userSpaceOnUse" x="-44.4" y="45.9" width="1.5" height="13.5">
									<feColorMatrix  type="matrix" values="1 0 0 0 0  0 1 0 0 0  0 0 1 0 0  0 0 0 1 0"/>
								</filter>
							</defs>
							<mask maskUnits="userSpaceOnUse" x="-44.4" y="45.9" width="1.5" height="13.5" id="mask-68_1_">
								<g class="st68">
									<path id="path-67_1_" class="st1" d="M-99.8,20c0,21.9,17.7,39.6,39.6,39.6c21.9,0,39.6-17.7,39.6-39.6
										c0-21.9-17.7-39.6-39.6-39.6C-82.1-19.6-99.8-1.9-99.8,20"/>
								</g>
							</mask>
							<path id="Fill-106" class="st69" d="M-43,45.9c-0.8,0.7-0.7,1.6-0.7,2.5c-0.3,3.3-0.5,6.5-0.7,9.8c0,0.4,0.1,0.8,0.2,1.2
								c0.1,0,0.1,0,0.2,0c0.1-1.7,0.2-3.5,0.2-5.2c0.1,0,0.2,0,0.2,0c-0.1,1.5-0.2,3.1-0.3,4.7C-43.4,58.4-42.6,46.5-43,45.9"/>
						</g>
						<g id="Group-111">
							<g id="Clip-110">
							</g>
							<defs>
								<filter id="Adobe_OpacityMaskFilter_34_" filterUnits="userSpaceOnUse" x="-47.4" y="50.2" width="1.6" height="12.2">
									<feColorMatrix  type="matrix" values="1 0 0 0 0  0 1 0 0 0  0 0 1 0 0  0 0 0 1 0"/>
								</filter>
							</defs>
							<mask maskUnits="userSpaceOnUse" x="-47.4" y="50.2" width="1.6" height="12.2" id="mask-70_1_">
								<g class="st70">
									<path id="path-69_1_" class="st1" d="M-99.8,20c0,21.9,17.7,39.6,39.6,39.6c21.9,0,39.6-17.7,39.6-39.6
										c0-21.9-17.7-39.6-39.6-39.6C-82.1-19.6-99.8-1.9-99.8,20"/>
								</g>
							</mask>
							<path id="Fill-109" class="st71" d="M-46.5,61.8c0.2-3.9,0.5-7.7,0.7-11.5c-0.1,0-0.3-0.1-0.4-0.1c-0.2,0.5-0.4,1-0.5,1.6
								c-0.3,3.1-0.5,6.3-0.7,9.4c0,0.4,0,0.8,0.1,1.2c0.1,0,0.2,0,0.2,0c0.1-1.2,0.2-2.4,0.3-3.6C-46.4,59.7-47.4,60.7-46.5,61.8"
								/>
						</g>
					</g>
				</g>
				<path id="Combined-Shape" class="st72" d="M-15,22.5C-15,46-34,65-57.5,65C-81,65-100,46-100,22.5S-81-20-57.5-20
					C-34-20-15-1-15,22.5z M-18.4,22.5c0-21.6-17.5-39.1-39.1-39.1c-21.6,0-39.1,17.5-39.1,39.1s17.5,39.1,39.1,39.1
					C-35.9,61.6-18.4,44.1-18.4,22.5z"/>
			</g>
		</g>
	</g>
</g>
</svg>
