<?xml version="1.0" encoding="UTF-8"?>
<svg width="140px" height="200px" viewBox="0 0 140 200" version="1.1" xmlns="http://www.w3.org/2000/svg" xmlns:xlink="http://www.w3.org/1999/xlink">
    <!-- Generator: Sketch 52.1 (67048) - http://www.bohemiancoding.com/sketch -->
    <title>Libro</title>
    <desc>Created with Sketch.</desc>
    <defs>
        <rect id="path-1" x="0" y="0" width="140" height="200"></rect>
        <path d="M0,51.3645 C0,79.63274 22.91586,102.54882 51.18454,102.54882 C79.453,102.54882 102.36908,79.63274 102.36908,51.3645 C102.36908,23.09604 79.453,0.17996 51.18454,0.17996 C22.91586,0.17996 0,23.09604 0,51.3645 Z" id="path-3"></path>
        <path d="M0,51.3645 C0,79.63274 22.91586,102.54882 51.18454,102.54882 C79.453,102.54882 102.36908,79.63274 102.36908,51.3645 C102.36908,23.09604 79.453,0.17996 51.18454,0.17996 C22.91586,0.17996 0,23.09604 0,51.3645" id="path-5"></path>
        <path d="M0,51.3645 C0,79.63274 22.91586,102.54882 51.18454,102.54882 C79.453,102.54882 102.36908,79.63274 102.36908,51.3645 C102.36908,23.09604 79.453,0.17996 51.18454,0.17996 C22.91586,0.17996 0,23.09604 0,51.3645" id="path-7"></path>
        <path d="M0,51.3645 C0,79.63274 22.91586,102.54882 51.18454,102.54882 C79.453,102.54882 102.36908,79.63274 102.36908,51.3645 C102.36908,23.09604 79.453,0.17996 51.18454,0.17996 C22.91586,0.17996 0,23.09604 0,51.3645" id="path-9"></path>
        <path d="M0,51.3645 C0,79.63274 22.91586,102.54882 51.18454,102.54882 C79.453,102.54882 102.36908,79.63274 102.36908,51.3645 C102.36908,23.09604 79.453,0.17996 51.18454,0.17996 C22.91586,0.17996 0,23.09604 0,51.3645" id="path-11"></path>
        <path d="M0,51.3645 C0,79.63274 22.91586,102.54882 51.18454,102.54882 C79.453,102.54882 102.36908,79.63274 102.36908,51.3645 C102.36908,23.09604 79.453,0.17996 51.18454,0.17996 C22.91586,0.17996 0,23.09604 0,51.3645" id="path-13"></path>
        <path d="M0,51.3645 C0,79.63274 22.91586,102.54882 51.18454,102.54882 C79.453,102.54882 102.36908,79.63274 102.36908,51.3645 C102.36908,23.09604 79.453,0.17996 51.18454,0.17996 C22.91586,0.17996 0,23.09604 0,51.3645" id="path-15"></path>
        <path d="M0,51.3645 C0,79.63274 22.91586,102.54882 51.18454,102.54882 C79.453,102.54882 102.36908,79.63274 102.36908,51.3645 C102.36908,23.09604 79.453,0.17996 51.18454,0.17996 C22.91586,0.17996 0,23.09604 0,51.3645" id="path-17"></path>
        <path d="M0,51.3645 C0,79.63274 22.91586,102.54882 51.18454,102.54882 C79.453,102.54882 102.36908,79.63274 102.36908,51.3645 C102.36908,23.09604 79.453,0.17996 51.18454,0.17996 C22.91586,0.17996 0,23.09604 0,51.3645" id="path-19"></path>
        <path d="M0,51.3645 C0,79.63274 22.91586,102.54882 51.18454,102.54882 C79.453,102.54882 102.36908,79.63274 102.36908,51.3645 C102.36908,23.09604 79.453,0.17996 51.18454,0.17996 C22.91586,0.17996 0,23.09604 0,51.3645" id="path-21"></path>
        <path d="M0,51.3645 C0,79.63274 22.91586,102.54882 51.18454,102.54882 C79.453,102.54882 102.36908,79.63274 102.36908,51.3645 C102.36908,23.09604 79.453,0.17996 51.18454,0.17996 C22.91586,0.17996 0,23.09604 0,51.3645" id="path-23"></path>
        <path d="M0,51.3645 C0,79.63274 22.91586,102.54882 51.18454,102.54882 C79.453,102.54882 102.36908,79.63274 102.36908,51.3645 C102.36908,23.09604 79.453,0.17996 51.18454,0.17996 C22.91586,0.17996 0,23.09604 0,51.3645" id="path-25"></path>
        <path d="M0,51.3645 C0,79.63274 22.91586,102.54882 51.18454,102.54882 C79.453,102.54882 102.36908,79.63274 102.36908,51.3645 C102.36908,23.09604 79.453,0.17996 51.18454,0.17996 C22.91586,0.17996 0,23.09604 0,51.3645" id="path-27"></path>
        <path d="M0,51.3645 C0,79.63274 22.91586,102.54882 51.18454,102.54882 C79.453,102.54882 102.36908,79.63274 102.36908,51.3645 C102.36908,23.09604 79.453,0.17996 51.18454,0.17996 C22.91586,0.17996 0,23.09604 0,51.3645" id="path-29"></path>
        <path d="M0,51.3645 C0,79.63274 22.91586,102.54882 51.18454,102.54882 C79.453,102.54882 102.36908,79.63274 102.36908,51.3645 C102.36908,23.09604 79.453,0.17996 51.18454,0.17996 C22.91586,0.17996 0,23.09604 0,51.3645" id="path-31"></path>
        <path d="M0,51.3645 C0,79.63274 22.91586,102.54882 51.18454,102.54882 C79.453,102.54882 102.36908,79.63274 102.36908,51.3645 C102.36908,23.09604 79.453,0.17996 51.18454,0.17996 C22.91586,0.17996 0,23.09604 0,51.3645" id="path-33"></path>
        <path d="M0,51.3645 C0,79.63274 22.91586,102.54882 51.18454,102.54882 C79.453,102.54882 102.36908,79.63274 102.36908,51.3645 C102.36908,23.09604 79.453,0.17996 51.18454,0.17996 C22.91586,0.17996 0,23.09604 0,51.3645" id="path-35"></path>
        <path d="M0,51.3645 C0,79.63274 22.91586,102.54882 51.18454,102.54882 C79.453,102.54882 102.36908,79.63274 102.36908,51.3645 C102.36908,23.09604 79.453,0.17996 51.18454,0.17996 C22.91586,0.17996 0,23.09604 0,51.3645" id="path-37"></path>
        <path d="M0,51.3645 C0,79.63274 22.91586,102.54882 51.18454,102.54882 C79.453,102.54882 102.36908,79.63274 102.36908,51.3645 C102.36908,23.09604 79.453,0.17996 51.18454,0.17996 C22.91586,0.17996 0,23.09604 0,51.3645" id="path-39"></path>
        <path d="M0,51.3645 C0,79.63274 22.91586,102.54882 51.18454,102.54882 C79.453,102.54882 102.36908,79.63274 102.36908,51.3645 C102.36908,23.09604 79.453,0.17996 51.18454,0.17996 C22.91586,0.17996 0,23.09604 0,51.3645" id="path-41"></path>
        <path d="M0,51.3645 C0,79.63274 22.91586,102.54882 51.18454,102.54882 C79.453,102.54882 102.36908,79.63274 102.36908,51.3645 C102.36908,23.09604 79.453,0.17996 51.18454,0.17996 C22.91586,0.17996 0,23.09604 0,51.3645" id="path-43"></path>
        <path d="M0,51.3645 C0,79.63274 22.91586,102.54882 51.18454,102.54882 C79.453,102.54882 102.36908,79.63274 102.36908,51.3645 C102.36908,23.09604 79.453,0.17996 51.18454,0.17996 C22.91586,0.17996 0,23.09604 0,51.3645" id="path-45"></path>
        <path d="M0,51.3645 C0,79.63274 22.91586,102.54882 51.18454,102.54882 C79.453,102.54882 102.36908,79.63274 102.36908,51.3645 C102.36908,23.09604 79.453,0.17996 51.18454,0.17996 C22.91586,0.17996 0,23.09604 0,51.3645" id="path-47"></path>
        <path d="M0,51.3645 C0,79.63274 22.91586,102.54882 51.18454,102.54882 C79.453,102.54882 102.36908,79.63274 102.36908,51.3645 C102.36908,23.09604 79.453,0.17996 51.18454,0.17996 C22.91586,0.17996 0,23.09604 0,51.3645" id="path-49"></path>
        <path d="M0,51.3645 C0,79.63274 22.91586,102.54882 51.18454,102.54882 C79.453,102.54882 102.36908,79.63274 102.36908,51.3645 C102.36908,23.09604 79.453,0.17996 51.18454,0.17996 C22.91586,0.17996 0,23.09604 0,51.3645" id="path-51"></path>
        <path d="M0,51.3645 C0,79.63274 22.91586,102.54882 51.18454,102.54882 C79.453,102.54882 102.36908,79.63274 102.36908,51.3645 C102.36908,23.09604 79.453,0.17996 51.18454,0.17996 C22.91586,0.17996 0,23.09604 0,51.3645" id="path-53"></path>
        <path d="M0,51.3645 C0,79.63274 22.91586,102.54882 51.18454,102.54882 C79.453,102.54882 102.36908,79.63274 102.36908,51.3645 C102.36908,23.09604 79.453,0.17996 51.18454,0.17996 C22.91586,0.17996 0,23.09604 0,51.3645" id="path-55"></path>
        <path d="M0,51.3645 C0,79.63274 22.91586,102.54882 51.18454,102.54882 C79.453,102.54882 102.36908,79.63274 102.36908,51.3645 C102.36908,23.09604 79.453,0.17996 51.18454,0.17996 C22.91586,0.17996 0,23.09604 0,51.3645" id="path-57"></path>
        <path d="M0,51.3645 C0,79.63274 22.91586,102.54882 51.18454,102.54882 C79.453,102.54882 102.36908,79.63274 102.36908,51.3645 C102.36908,23.09604 79.453,0.17996 51.18454,0.17996 C22.91586,0.17996 0,23.09604 0,51.3645" id="path-59"></path>
        <path d="M0,51.3645 C0,79.63274 22.91586,102.54882 51.18454,102.54882 C79.453,102.54882 102.36908,79.63274 102.36908,51.3645 C102.36908,23.09604 79.453,0.17996 51.18454,0.17996 C22.91586,0.17996 0,23.09604 0,51.3645" id="path-61"></path>
        <path d="M0,51.3645 C0,79.63274 22.91586,102.54882 51.18454,102.54882 C79.453,102.54882 102.36908,79.63274 102.36908,51.3645 C102.36908,23.09604 79.453,0.17996 51.18454,0.17996 C22.91586,0.17996 0,23.09604 0,51.3645" id="path-63"></path>
        <path d="M0,51.3645 C0,79.63274 22.91586,102.54882 51.18454,102.54882 C79.453,102.54882 102.36908,79.63274 102.36908,51.3645 C102.36908,23.09604 79.453,0.17996 51.18454,0.17996 C22.91586,0.17996 0,23.09604 0,51.3645" id="path-65"></path>
        <path d="M0,51.3645 C0,79.63274 22.91586,102.54882 51.18454,102.54882 C79.453,102.54882 102.36908,79.63274 102.36908,51.3645 C102.36908,23.09604 79.453,0.17996 51.18454,0.17996 C22.91586,0.17996 0,23.09604 0,51.3645" id="path-67"></path>
        <path d="M0,51.3645 C0,79.63274 22.91586,102.54882 51.18454,102.54882 C79.453,102.54882 102.36908,79.63274 102.36908,51.3645 C102.36908,23.09604 79.453,0.17996 51.18454,0.17996 C22.91586,0.17996 0,23.09604 0,51.3645" id="path-69"></path>
        <path d="M0,51.3645 C0,79.63274 22.91586,102.54882 51.18454,102.54882 C79.453,102.54882 102.36908,79.63274 102.36908,51.3645 C102.36908,23.09604 79.453,0.17996 51.18454,0.17996 C22.91586,0.17996 0,23.09604 0,51.3645" id="path-71"></path>
    </defs>
    <g id="Design" stroke="none" stroke-width="1" fill="none" fill-rule="evenodd">
        <g id="01---Libreria" transform="translate(-1010.000000, -440.000000)">
            <g id="Libro" transform="translate(970.000000, 420.000000)">
                <g transform="translate(40.000000, 20.000000)">
                    <mask id="mask-2" fill="white">
                        <use xlink:href="#path-1"></use>
                    </mask>
                    <use id="Rectangle-3" fill="#3F51B5" fill-rule="nonzero" xlink:href="#path-1"></use>
                    <g id="CENAJLogo" opacity="0.396752" style="mix-blend-mode: lighten;" mask="url(#mask-2)">
                        <g transform="translate(16.000000, 46.000000)">
                            <path d="M105.6,55 C105.6,82.9456273 82.9455786,105.6 55.0001087,105.6 C27.0544214,105.6 4.4,82.9456273 4.4,55 C4.4,27.0543727 27.0544214,4.4 55.0001087,4.4 C82.9455786,4.4 105.6,27.0543727 105.6,55" id="Fill-4" fill="#FFECB3" fill-rule="evenodd"></path>
                            <polygon id="Path-2" fill="#FFFFFF" fill-rule="nonzero" points="30.994553 81.1834738 27.5896764 70.2100457 26.1261103 68.9829821 24.6890856 68.9829821 23.5767185 65.5591474 25.327026 61.0314768 22.1998857 55 21.2150119 49.2333709 21.2150119 45.019457 25.327026 44.0810305 27.5896764 37.1471018 29.6674853 30.1425541 29.6674853 28.0258811 32.2055023 26.2442927 36.1265134 23.2868275 42.8547467 18.4340253 50.8787667 14.8642132 58.4658024 14.1499664 68.209797 17.4155008 76.0328611 25.4414167 80.407919 31.2132133 83.3758111 38.6376832 85.1630869 45.019457 85.1630869 47.6667201 85.9176197 48.4267033 88.5068236 45.6739857 89.596441 45.6739857 90.3950514 49.2333709 88.5068236 55 87.5513349 59.4470527 87.5513349 65.5591474 85.9176197 68.9829821 85.1630869 70.2100457 80.407919 82.235175 81.0804579 100.735447 69.9676878 106.044191 53.8973718 107.980762 44.1405805 107.980762 29.6674853 101.744966 27.5896764 84.813004"></polygon>
                            <g id="Group-113" stroke-width="1" fill="none" fill-rule="evenodd" transform="translate(0.000000, -0.440000)">
                                <g id="Group-6" transform="translate(0.000000, 0.040040)"></g>
                                <g id="Group-112" transform="translate(3.740000, 6.860040)">
                                    <g id="Group-9">
                                        <mask id="mask-4" fill="white">
                                            <use xlink:href="#path-3"></use>
                                        </mask>
                                        <g id="Clip-8"></g>
                                        <path d="M64.47716,108.660772 C64.6459,106.851932 64.8142,105.043312 64.98272,103.234472 C65.06258,103.240852 65.14222,103.247672 65.22208,103.254052 C65.09448,105.066192 64.96666,106.878112 64.83884,108.690472 L64.47716,108.660772 Z M62.44986,109.836012 C62.44986,107.733472 62.4404,106.008232 62.45448,104.283212 C62.45998,103.590652 62.61222,102.887532 62.53192,102.208832 C62.31478,100.372052 63.56196,99.588192 64.99174,98.567392 C64.67032,102.075072 64.4248,105.311712 64.01956,108.528112 C63.96412,108.967892 63.1125,109.307132 62.44986,109.836012 Z M60.2195,96.146072 C61.42488,94.198852 62.03318,93.856312 63.20754,94.419512 C62.65292,96.015832 61.39122,96.768452 60.2195,96.146072 Z M57.78784,104.335572 C59.08078,103.437972 60.21554,102.650152 61.5329,101.735392 C61.43918,102.844412 61.35866,103.797892 61.27352,104.806372 C61.46228,104.825732 61.6528,104.845312 61.81428,104.862032 L61.81428,109.635152 C61.73244,109.639552 61.6506,109.643952 61.56898,109.648352 L61.56898,105.380792 L61.24602,105.373752 C61.17936,106.350772 61.09158,107.327132 61.04978,108.305472 C60.97058,110.161612 60.82494,110.307912 58.90456,110.320012 C58.90456,108.754712 58.83394,107.184572 58.9468,105.627632 C58.98156,105.150232 59.51946,104.709352 59.93086,104.097092 C59.07572,104.079492 58.69028,104.398712 58.63968,105.138132 C58.542,106.561752 58.43816,107.984932 58.33102,109.407892 C58.30506,109.752632 58.25688,110.095612 58.2186,110.439472 L57.92666,110.424732 C58.01246,108.494012 58.09826,106.563512 58.18406,104.632792 C58.08572,104.627072 57.98738,104.621572 57.88926,104.615632 C57.7577,106.122412 57.62856,107.629192 57.49414,109.135532 C57.33134,110.961092 57.2099,111.055692 55.34804,110.932272 C55.34804,108.812792 55.3311,106.702552 55.35552,104.592752 C55.3674,103.569092 55.56672,102.538172 55.48796,101.525512 C55.35244,99.790152 56.4333,98.938092 57.6994,98.220012 C58.03424,98.030372 58.53452,98.133112 58.95868,98.101652 L59.1195,98.520752 C58.06768,99.310332 57.01586,100.099912 55.79068,101.019732 C56.30086,101.096072 56.59038,101.139412 56.88276,101.183412 C56.66716,101.499112 56.45618,101.808212 56.12662,102.290892 C58.65442,102.053952 59.53288,99.369512 61.95684,99.315612 C61.56568,99.679052 61.20114,100.078132 60.7772,100.397352 C60.04834,100.945812 59.2504,101.405172 58.54112,101.975852 C57.92644,102.470412 57.55926,103.129312 57.78784,104.335572 Z M54.77736,109.389632 C54.12088,106.313152 54.71026,103.250092 54.80574,100.181092 C54.92454,100.165692 55.04312,100.149852 55.16192,100.134232 C55.03366,103.219512 54.90562,106.304352 54.77736,109.389632 Z M54.14992,106.902092 C54.14662,107.853372 54.1123,108.804872 54.08216,109.755932 C54.0331,111.308692 54.0298,111.308472 52.4513,111.212552 C52.16156,106.012412 51.97852,100.812712 52.71684,95.630392 C52.84092,95.611252 52.96522,95.591892 53.08952,95.572532 C53.12406,95.846872 53.20216,96.124732 53.18192,96.394892 C53.15618,96.738752 53.0508,97.076452 52.97952,97.416572 C53.40962,97.354972 54.00384,97.450672 54.24012,97.203612 C55.06094,96.345612 55.70224,96.845452 56.74856,97.456392 C55.83226,97.997592 55.1463,98.402832 54.15278,98.989352 C54.15278,101.418592 54.15872,104.160452 54.14992,106.902092 Z M56.39524,92.954752 C55.87692,93.849052 55.29788,94.032972 54.4962,93.500792 C55.03608,92.574372 55.1683,92.532132 56.39524,92.954752 Z M60.55852,93.524552 C59.81624,94.176412 59.13754,94.772612 58.4661,95.362432 C57.99002,95.103492 57.54958,94.863912 57.04446,94.588912 C57.94668,93.103472 58.89994,92.778092 60.55852,93.524552 Z M64.44856,88.850872 C64.5084,88.914672 64.56802,88.978692 64.62786,89.042492 C63.91066,89.756612 63.15144,90.434212 62.4877,91.194972 C61.75356,92.036472 61.01128,92.105772 59.79028,91.235012 C61.49792,90.360952 62.97324,89.605912 64.44856,88.850872 Z M73.2655,81.140312 C73.348,81.208512 73.4305,81.276712 73.51278,81.345132 C71.39726,85.710372 68.08164,89.214532 65.11538,93.002932 C64.62302,92.798992 64.19028,92.619912 63.47748,92.324672 C66.78276,88.547932 70.02424,84.844232 73.2655,81.140312 Z M50.09554,111.260072 L47.6498,111.260072 C48.11224,106.333832 48.56896,101.467652 49.0259,96.601472 C49.15372,96.615112 49.28154,96.628972 49.40914,96.642612 C49.6353,100.804352 50.98258,108.288092 50.09554,111.260072 Z M46.88772,111.279652 C46.27062,111.198472 45.66826,111.119272 44.92818,111.021592 C45.17722,105.701772 45.42318,100.453012 45.67178,95.148152 C45.408,95.136052 45.0934,95.121752 44.46398,95.092932 C45.56486,94.232292 46.45674,93.534892 47.34862,92.837492 C47.45268,92.911412 47.55696,92.985332 47.66124,93.059252 C47.23004,95.424032 46.73482,97.779572 46.38502,100.156452 C46.01828,102.647292 45.782,105.157712 45.50766,107.661752 C45.4256,108.409092 45.6258,108.974492 46.43276,109.311312 C47.31254,109.678272 47.16052,110.444752 46.88772,111.279652 Z M44.51722,97.848212 C44.23298,102.148112 43.97316,106.449992 43.69772,110.873532 C43.109,110.783992 42.62456,110.710292 41.95136,110.608432 C42.19996,108.153452 42.3852,105.787352 42.70816,103.440392 C42.8153,102.662032 42.7493,102.141732 42.11196,101.644972 C40.87776,100.683352 39.69988,99.649792 38.48306,98.665292 C38.33192,98.542972 38.07914,98.554412 37.88576,98.474112 C37.6739,98.386112 37.47656,98.263352 37.27284,98.155772 C37.46666,97.978892 37.69502,97.626892 37.84814,97.656812 C38.38428,97.762852 38.97828,97.889792 39.39848,98.208792 C40.60518,99.124872 41.7373,100.139072 42.93674,101.146232 C43.75316,99.753852 43.05884,99.171512 42.17048,98.606992 C41.4425,98.144332 40.77436,97.587732 40.07982,97.072932 C40.20544,96.907492 40.33106,96.742052 40.4569,96.576832 L43.44626,99.025432 C43.52194,98.976592 43.59762,98.927752 43.67352,98.878692 C43.5226,98.511952 43.37168,98.145212 43.20756,97.746132 C43.50676,97.844252 43.82708,97.949412 44.1474,98.054792 C44.21714,97.993192 44.28666,97.931152 44.35618,97.869332 C44.0836,97.548572 43.8383,97.197892 43.53008,96.916072 C43.26388,96.672752 42.88526,96.548012 42.63358,96.294132 C42.44922,96.108012 42.22812,95.675492 42.30886,95.568572 C42.47364,95.350772 42.87272,95.117792 43.1013,95.176972 C43.75294,95.345932 44.3674,95.658112 44.85096,95.854792 C44.71654,96.637332 44.55748,97.238812 44.51722,97.848212 Z M41.21436,110.301532 C41.03462,110.371932 40.8551,110.442772 40.67536,110.513392 C40.45844,110.261492 40.04154,109.998372 40.0554,109.760112 C40.1973,107.322512 40.40146,104.888212 40.61332,102.455232 C40.63466,102.211472 40.81968,101.981792 41.1422,101.820312 C41.10348,101.979372 40.98468,102.174952 41.03814,102.291992 C42.26376,104.980172 40.5889,107.627212 41.21436,110.301532 Z M39.47944,101.962432 C39.1578,104.566352 39.01458,107.192052 38.79656,109.811812 C36.9699,109.591152 36.96726,109.590932 37.06428,107.910792 C37.13798,106.633912 37.18352,105.353952 37.3186,104.083232 C37.36546,103.641912 37.64354,103.224792 37.75002,102.960352 C37.08914,101.694472 37.83692,100.431012 37.62506,98.942712 C38.7189,99.892012 39.66336,100.471932 39.47944,101.962432 Z M35.83162,108.872852 C34.18756,108.715112 34.0978,108.640532 34.19394,107.114612 C34.36818,104.347452 34.57344,101.582052 34.76506,98.826112 C35.3111,98.553312 35.84746,98.285352 36.61592,97.901452 C36.3462,101.675772 36.08902,105.273212 35.83162,108.872852 Z M33.27786,90.695572 C31.74996,88.423192 30.28058,86.111652 28.78854,83.814852 C28.42972,83.262872 28.06232,82.716392 27.64366,82.084332 C28.00182,81.620132 28.46206,81.546432 28.98324,82.092252 C28.96388,82.491772 28.77182,83.016912 28.95508,83.268812 C30.33052,85.160592 31.76492,87.010132 33.21384,88.846912 C33.85756,89.663112 34.76,90.322452 34.65198,91.868392 C34.07954,91.390992 33.56364,91.120612 33.27786,90.695572 Z M33.36014,107.066872 C33.55396,107.221312 33.4884,107.701132 33.57574,108.241892 C32.38554,107.716092 31.39994,107.280712 30.69704,106.970072 C30.94146,106.303472 31.24902,105.817272 31.2851,105.311492 C31.60058,100.896752 31.86744,96.478272 32.1508,92.030092 C33.52228,92.480652 33.65692,92.712092 33.31988,93.872152 C32.96546,95.091612 32.79056,96.293912 33.50908,97.466732 C33.65252,97.701252 33.73964,98.028172 33.71346,98.298992 C33.48928,100.627692 33.25828,102.956392 32.97118,105.278052 C32.88802,105.948392 32.70036,106.540412 33.36014,107.066872 Z M29.93694,87.439572 C30.96632,88.698852 31.15244,90.048112 31.06202,91.394952 C30.88448,94.041332 30.5778,96.679132 30.32458,99.320672 C29.14912,98.105832 28.9223,91.894792 29.93694,87.439572 Z M28.35316,87.727992 C28.22622,86.504792 28.12986,85.575732 28.00886,84.409732 C29.29674,85.519852 28.75994,86.481252 28.35316,87.727992 Z M27.2404,76.364992 C28.74366,78.745392 30.09798,81.239092 31.79242,83.475172 C33.48444,85.707952 35.51702,87.682672 37.42992,89.803032 C36.61328,90.418372 35.96142,90.542672 35.29328,89.630332 C33.91124,87.743392 32.49994,85.875372 31.03166,84.055312 C30.4425,83.324912 29.67162,82.741032 28.98346,82.090492 C28.98346,82.090712 28.98324,82.090932 28.98324,82.091152 C28.30938,80.221372 27.6353,78.351592 26.96122,76.482032 C27.05428,76.443092 27.14734,76.403932 27.2404,76.364992 Z M22.79156,102.018312 C22.81048,101.859912 22.84986,101.532552 22.91806,100.964732 C22.5643,101.298252 22.38236,101.470072 22.12694,101.710972 C22.02838,101.454232 21.9076,101.271852 21.8944,101.081992 C21.84842,100.414072 21.86844,99.766832 20.9957,99.530332 C20.7933,99.475332 20.71344,98.967132 20.51038,98.521192 C20.29874,98.788932 20.12846,99.004312 19.8693,99.332112 C20.23076,97.640532 18.77546,97.012872 18.12272,95.639852 C17.88028,96.428332 17.71968,96.951052 17.55908,97.473552 C17.47416,97.451772 17.3888,97.429552 17.30366,97.407772 C17.49374,96.640632 17.6836,95.873932 17.89964,95.002072 C19.37452,95.960172 19.68428,97.974492 21.40336,98.636472 C22.34936,99.583572 23.35762,100.648592 24.42858,101.646292 C25.17482,102.341272 26.0425,102.920532 26.0689,104.368352 C24.8908,103.523332 23.89618,102.810312 22.79156,102.018312 Z M36.5937,95.861392 C36.02214,96.129352 35.57158,96.340552 34.85922,96.674732 C34.96306,95.850392 35.0295,95.322172 35.12036,94.602992 C35.63758,95.044532 36.03402,95.383332 36.5937,95.861392 Z M38.53058,94.840372 C37.32432,95.156952 36.80776,94.443712 36.3363,93.457012 C37.66026,93.095552 37.91766,94.263972 38.53058,94.840372 Z M41.5338,93.347452 C40.57482,94.377932 39.22028,93.967632 38.44522,92.364052 C39.798,91.731112 40.63466,92.606272 41.5338,93.347452 Z M16.89248,96.626552 L16.4131,96.577492 L16.78094,93.867312 C17.78964,94.881512 16.24238,95.649972 16.89248,96.626552 Z M20.77592,60.517292 C20.81244,59.405412 20.98184,58.297932 21.0936,57.188472 L21.41502,57.207172 C21.7239,58.704052 22.033,60.200932 22.35618,61.765572 C21.29754,61.860172 20.74534,61.447892 20.77592,60.517292 Z M17.92384,40.603112 C17.98126,39.018012 18.50508,38.385732 19.49134,38.422032 C20.52534,38.460312 20.98008,39.341852 21.25816,40.690232 C22.02772,44.423632 21.19348,48.075192 20.87162,51.776252 C19.0234,48.268572 17.77864,44.608872 17.92384,40.603112 Z M95.1258,78.456312 C94.58482,79.820532 93.9939,81.177932 93.3482,82.527412 C90.27744,88.945472 86.05828,94.537652 80.75188,99.292952 C80.51648,99.503712 80.21464,99.640332 79.94382,99.811272 C78.89222,100.698752 77.88242,101.641672 76.78132,102.462492 C73.62828,104.812972 70.19276,106.672192 66.55022,108.149712 C66.19294,108.294472 65.81762,108.395012 65.1728,108.607752 C65.50258,104.606172 65.69486,100.809632 66.18678,97.052252 C66.37136,95.644032 67.25312,94.326892 67.82732,92.943972 C67.31912,93.414112 66.72952,93.959932 66.14036,94.505532 C66.0385,94.427652 65.93664,94.349552 65.835,94.271672 C66.34584,93.583732 66.78958,92.830672 67.38072,92.220612 C68.87012,90.684792 70.26184,89.089792 71.19046,87.139272 C71.23732,87.040712 71.29804,86.947212 71.36184,86.857892 C72.90272,84.704752 74.44492,82.552492 75.93278,80.475472 C75.89406,81.060232 75.84126,81.861472 75.78714,82.662272 C75.4919,87.038072 75.17554,91.412332 74.91264,95.789892 C74.82332,97.273792 74.85896,98.765612 74.85764,100.253912 C74.85676,101.075832 75.41732,101.104652 75.88636,100.765632 C77.1144,99.878812 78.60842,100.236532 79.91852,99.784432 C80.0547,97.972952 81.36348,97.245412 82.81152,96.577712 L82.236,96.615772 C82.28154,95.562632 83.55776,94.040452 84.23756,93.859612 C85.06982,92.885012 85.68164,92.168472 86.37662,91.354692 C86.51082,91.714392 86.56626,91.862672 86.62148,92.010952 C86.69562,92.018652 86.76954,92.026572 86.84346,92.034272 C86.88856,91.663132 87.01396,91.281212 86.96446,90.923272 C86.79352,89.692592 88.07678,87.866152 89.29228,87.616012 C89.53406,87.566292 89.80994,87.349152 89.93732,87.131352 C90.78344,85.684412 91.5937,84.215912 92.46974,82.657872 C87.69816,79.533872 82.5121,77.277772 78.17568,73.545472 C78.64208,72.368692 79.12784,71.196312 79.57224,70.008532 C80.0591,68.707452 80.54046,67.402632 80.96308,66.079772 C81.29308,65.046872 81.58304,64.161152 82.6386,63.451872 C84.07102,62.489372 84.15264,60.676132 84.30268,59.075632 C84.41862,57.840772 84.40718,56.579952 84.31016,55.341572 C84.09324,52.566932 84.60452,49.956632 85.7824,47.446432 C86.80056,45.276572 87.32724,43.005512 86.72906,40.620272 C86.52204,39.794612 86.09018,39.025492 85.74698,38.195652 C83.8519,38.618272 83.13382,40.136712 81.97266,41.225712 C82.34072,40.560212 81.41804,40.130332 81.90908,39.241312 C82.86608,37.509252 81.40396,34.330692 79.3826,33.741972 C79.65144,34.154472 79.91984,34.566972 80.14556,34.913252 C80.14556,35.388892 80.14622,35.841212 80.14556,36.293752 C80.14424,37.170452 80.21024,38.053752 80.12664,38.922752 C79.9612,40.637652 81.07462,41.494992 82.12798,42.332092 C83.07486,41.298532 83.9608,40.331852 84.94948,39.252532 C86.0233,40.710252 86.28906,42.042132 85.98304,43.449252 C85.75886,44.479512 85.47528,45.529132 85.01284,46.469192 C83.33886,49.872592 82.8982,53.424052 83.35646,57.159872 C83.54236,58.676112 83.41168,60.211932 82.25668,61.436452 C83.09642,56.762552 83.35558,52.091732 82.7398,47.406832 C82.59724,47.401992 82.45512,47.397152 82.31278,47.392532 C82.31278,47.947592 82.34754,48.505292 82.30728,49.057712 C82.03558,52.776152 82.10598,56.566752 81.36678,60.191692 C80.59018,64.000112 79.09814,67.672792 77.77924,71.354932 C77.35926,72.527532 76.53756,73.570992 75.82102,74.619732 C74.58484,76.428132 73.41928,78.309132 71.98972,79.956492 C68.15446,84.377832 63.43018,87.498972 57.71744,88.960432 C51.0037,90.677972 44.8712,89.062072 39.17584,85.435372 C37.57688,84.417212 36.12334,83.158592 34.66892,81.932532 C34.24344,81.573712 34.04434,80.946052 33.87428,80.662472 C33.20592,80.048672 32.6271,79.635292 32.19612,79.102672 C27.88192,73.769432 25.38976,67.606132 24.0713,60.937052 C22.45232,52.746012 22.63646,44.551452 24.1142,36.356892 C24.25192,35.593272 24.03786,34.772452 24.08472,33.983972 C24.10848,33.584892 24.36038,33.201872 24.49128,32.805872 C24.60546,32.460032 24.69456,32.106272 24.8204,31.666052 C24.63736,31.606872 24.39778,31.528992 24.25478,31.482572 C24.8215,30.798152 25.4199,30.075452 26.1602,29.181372 C25.61504,29.046292 25.25666,28.957192 24.89388,28.867212 C25.25776,28.628732 25.6322,28.383432 26.00642,28.138132 L25.94812,27.930892 L24.3914,27.930892 C25.05404,27.426872 25.65244,26.971912 26.32542,26.460192 C25.18098,26.248772 23.95316,26.762472 23.14356,27.810772 C21.92542,29.388172 21.58904,31.240572 21.60906,33.182952 C21.6106,33.345972 21.70894,33.596552 21.63634,33.658592 C20.62918,34.516812 20.87734,35.508132 21.2322,36.560612 C21.32284,36.829672 21.14002,37.191132 21.09668,37.432032 C20.27784,37.432032 19.4843,37.354152 18.71298,37.452272 C17.77798,37.571072 17.2205,38.163092 17.18288,39.149352 C17.00688,43.788272 17.49946,48.310592 19.85764,52.418872 C20.58562,53.687612 20.72114,54.771772 20.08732,56.122352 C19.30016,57.799632 19.29136,59.620132 19.91528,61.372652 C20.28246,62.403792 20.88636,63.265092 22.21824,63.192492 C22.4334,63.180832 22.80014,63.481352 22.87274,63.708832 C23.57168,65.898272 24.17404,68.119832 24.9128,70.295192 C25.18692,71.102372 24.9942,71.556232 24.40438,72.078072 C22.01276,74.194032 19.23966,75.663852 16.34138,76.922472 C14.39548,77.767492 12.41328,78.529132 10.47662,79.394392 C10.01616,79.599872 9.64458,80.042512 9.28312,80.424432 C8.5712,81.176832 7.89514,81.962892 7.08664,82.866432 C6.4196,81.529712 5.82692,80.210592 5.30046,78.896312 L4.93042,78.896312 C7.60826,85.918492 11.66528,92.235792 17.19322,97.738652 C21.67132,102.196732 26.62088,106.070272 32.69684,108.227592 C33.1771,108.398092 33.59092,108.956672 34.04368,108.966792 C35.62086,109.001772 36.80292,110.394592 38.42762,110.156332 C39.17716,111.359072 40.51916,110.462792 41.5074,111.027972 C42.25452,111.455212 43.22362,111.505812 44.10164,111.685772 C44.35948,111.738572 44.6468,111.678732 44.91586,111.638692 C45.21748,111.594032 45.59192,111.364572 45.79938,111.473252 C46.94756,112.075392 48.12016,111.617132 49.27714,111.650352 C49.49428,111.656732 49.7112,111.694132 49.92724,111.723392 C50.57734,111.811392 51.24372,112.039972 51.87424,111.965392 C53.38652,111.785652 54.88428,111.476552 56.38358,111.196712 C58.10134,110.876392 59.84726,110.649352 61.5241,110.178332 C72.06276,107.217792 80.70018,101.351052 87.35034,92.698012 C90.84394,88.152152 93.56292,83.399272 95.5427,78.456312 L95.1258,78.456312 Z" id="Fill-7" fill="#424242" mask="url(#mask-4)"></path>
                                    </g>
                                    <g id="Group-12">
                                        <mask id="mask-6" fill="white">
                                            <use xlink:href="#path-5"></use>
                                        </mask>
                                        <g id="Clip-11"></g>
                                        <path d="M32.82004,50.675284 C34.20912,50.972284 35.32364,50.339564 36.33872,49.543164 C37.65454,48.511144 39.0423,48.356044 40.5658,48.942784 C41.11162,49.152884 41.65524,49.417544 42.2235,49.508184 C42.96446,49.626544 43.72896,49.596624 44.62832,49.636884 C43.43218,46.949144 41.57362,46.187724 39.23634,47.189384 C38.5308,47.491664 37.85584,47.870504 37.13908,48.140004 C35.7753,48.653044 34.73844,48.362424 33.79288,47.275184 C32.35716,45.624524 32.29974,44.127644 33.56716,42.116184 C33.88286,42.528904 34.20934,42.955924 34.53604,43.382944 C34.65242,43.314744 34.76858,43.246544 34.88496,43.178564 C34.70412,42.416484 34.52328,41.654624 34.34244,40.892544 C34.60424,40.957664 34.72106,41.065024 34.75054,41.192624 C35.1681,43.002784 36.49096,43.923264 37.99774,44.805024 C38.96684,45.372184 39.7815,45.889404 40.98424,46.113364 C42.23318,46.345904 43.53888,45.611764 44.7007,46.431044 C44.79376,46.496384 45.12728,46.207524 45.35586,46.097304 C45.79256,45.886544 46.23432,45.685904 46.66926,45.483284 C47.23092,44.843304 47.89752,44.205304 48.4176,43.464784 C49.30178,42.205284 50.09356,40.881324 50.81626,39.753164 C50.9344,40.208124 51.10732,40.873624 51.28002,41.538904 C51.41092,41.510964 51.54226,41.483244 51.67338,41.455304 C51.3722,39.096464 51.0708,36.737624 50.76918,34.378784 L50.46118,34.424324 C50.32082,35.875444 50.20752,37.329424 50.03218,38.776364 C49.8564,40.228364 49.47558,41.597424 48.1118,42.524724 C48.36348,41.514484 48.59602,40.579704 48.829,39.644924 C48.7201,39.673964 48.6112,39.702784 48.5023,39.731824 C48.2383,39.487184 47.95956,39.256404 47.71426,38.994164 C47.41198,38.671204 47.13764,38.322064 46.77376,37.893064 C46.60788,38.360564 46.50492,38.651404 46.39756,38.954124 C45.57146,38.167184 43.81718,38.185224 43.13232,38.929924 C41.82948,38.303804 40.53896,37.683404 39.4691,37.169044 C38.26724,35.275284 37.16614,33.539924 36.06504,31.804564 C35.95196,31.868364 35.83888,31.932164 35.7258,31.996184 C36.0822,32.773444 36.4386,33.550924 36.78092,34.298044 C35.0361,34.787324 34.55584,32.689844 33.14322,32.492504 C33.05764,32.574124 32.97184,32.655964 32.88626,32.737584 C33.42108,33.357104 33.95634,33.976844 34.50656,34.614184 C34.15896,34.677104 33.81796,34.738924 33.28182,34.835944 C34.46256,35.617824 35.44574,36.268804 36.42892,36.919784 C36.35478,37.028464 36.28064,37.137144 36.2065,37.246044 C35.77068,36.927704 35.33464,36.609364 34.88078,36.278044 C34.73426,36.677784 34.60446,37.030664 34.46476,37.412144 C34.21308,37.125044 34.0252,36.910764 33.7436,36.590004 C33.1067,38.474524 32.4775,40.167864 31.9781,41.898604 C31.7812,42.581044 31.7999,43.351924 31.8494,44.073524 C31.97282,45.869824 32.52546,47.486384 34.1231,48.595404 C32.3378,48.456584 32.2729,46.560404 31.07214,45.658624 C31.03012,47.968184 32.50368,48.950264 34.38446,49.809144 C32.81124,49.865904 32.81124,49.865904 32.82004,50.675284" id="Fill-10" fill="#424242" mask="url(#mask-6)"></path>
                                    </g>
                                    <g id="Group-15">
                                        <mask id="mask-8" fill="white">
                                            <use xlink:href="#path-7"></use>
                                        </mask>
                                        <g id="Clip-14"></g>
                                        <path d="M75.644734,37.364646 C74.781014,37.299746 73.874174,37.812126 72.986254,38.071726 C72.918714,37.996266 72.851394,37.920586 72.783854,37.845126 C73.375434,37.272466 73.966574,36.700026 74.638894,36.049046 C73.915094,35.718826 73.334734,36.155526 72.767134,36.635566 C72.180174,37.131666 71.598714,37.634586 70.830254,38.292606 C71.084354,37.607086 71.240114,37.186226 71.396094,36.765586 L71.221414,36.656686 C70.154634,37.714446 69.088074,38.772206 68.021514,39.829966 C67.967394,39.765066 67.912834,39.699946 67.858714,39.635046 C68.247894,39.015746 68.637074,38.396226 69.026474,37.776926 C68.946394,37.716426 68.866094,37.655926 68.786014,37.595206 C68.218194,38.101866 67.650594,38.608306 67.082994,39.114746 C67.048674,39.076466 67.014354,39.038186 66.979594,38.999906 C67.189474,38.620186 67.399354,38.240466 67.609454,37.860746 C67.074854,37.901006 66.694254,38.085806 66.398794,38.361906 C65.837574,38.885726 65.376454,39.528126 64.774754,39.992986 C64.351034,40.320566 63.763634,40.435846 62.983294,40.754626 C63.260494,40.040506 63.383914,39.723046 63.574434,39.232006 C61.382574,40.005746 59.489914,41.340266 57.202574,39.684106 L57.202574,42.397806 C57.089274,42.405066 56.976194,42.412326 56.862894,42.419806 C56.545874,40.389426 56.229074,38.359266 55.858594,35.987666 C55.670934,36.626326 55.453134,36.969526 55.499334,37.272686 C55.854634,39.610406 56.208394,41.951866 56.697234,44.263626 C56.792934,44.716166 57.474274,45.042866 57.879954,45.433586 C57.957614,45.508386 58.009314,45.610466 58.070694,45.701766 C59.001954,47.079406 61.161474,47.586066 62.672654,46.904506 C63.749334,46.419186 64.906094,46.112066 66.027214,45.725306 L66.113014,45.967966 L65.579294,46.614986 C65.629014,46.726746 65.678294,46.838286 65.728014,46.949606 C66.567534,46.708046 67.425534,46.515326 68.240634,46.208646 C68.851354,45.978746 69.380674,45.518726 69.997994,45.325346 C70.305114,45.229206 71.039914,45.480226 71.048714,45.610466 C71.119334,46.641826 71.901654,46.455486 72.502474,46.541946 C73.132114,46.632586 73.771214,46.658106 74.416254,46.712886 C73.853274,50.482366 70.559214,51.741206 67.635194,49.472126 C65.358854,47.705526 63.328474,48.114066 61.787154,50.746586 C62.203614,50.712486 62.580914,50.760226 62.896394,50.642306 C64.387774,50.084386 65.846814,50.292286 67.315094,50.721726 C68.051654,50.937106 68.796794,51.129606 69.546774,51.293726 C70.575494,51.518786 71.496854,51.444646 72.438234,50.767486 C73.598514,49.932806 74.439354,49.065126 74.982754,47.641506 C75.389754,46.575826 75.798734,45.949926 74.573774,45.375066 C75.035774,45.085326 75.440794,44.831446 75.697094,44.670626 C75.280854,43.940886 75.000794,43.466126 74.735694,42.983446 C73.995834,41.634846 74.106714,41.436406 75.652874,41.312986 C75.863634,41.296266 76.073734,41.274926 76.334434,41.251386 C76.049314,40.370726 75.402074,40.383706 74.723594,40.415606 C74.165014,40.441786 73.604674,40.420886 72.810694,40.420886 C74.394474,38.710166 76.344334,38.965806 78.217634,38.542746 C77.274274,38.083386 76.481834,37.427566 75.644734,37.364646" id="Fill-13" fill="#424242" mask="url(#mask-8)"></path>
                                    </g>
                                    <g id="Group-18">
                                        <mask id="mask-10" fill="white">
                                            <use xlink:href="#path-9"></use>
                                        </mask>
                                        <g id="Clip-17"></g>
                                        <path d="M77.549538,19.34614 C76.140218,19.23636 74.925598,19.14198 73.614398,19.03968 C74.945618,18.44524 76.149678,18.6307 77.549538,19.34614 M30.860258,18.61288 C31.002818,18.36208 31.142518,17.97356 31.230078,17.985 C32.009538,18.08686 32.407518,17.46844 32.861378,17.08718 C36.993418,13.61624 41.476578,10.76306 46.701138,9.25166 C52.826818,7.47956 58.511838,8.71706 63.746078,12.13366 C65.407078,13.21782 66.829818,14.67136 68.339238,15.98212 C69.895518,17.3338 71.424298,18.71716 73.088158,20.196 C75.380338,19.40246 78.019018,19.9463 78.915518,21.56946 C75.714298,20.15574 74.676118,20.04068 73.529698,21.01374 C76.106118,21.01638 78.333398,21.89 80.294918,23.62162 C80.620298,19.51444 77.185878,17.06826 72.575118,18.36868 C71.632418,17.15274 70.781898,15.95836 69.832818,14.84846 C65.298618,9.5458 59.621078,6.80086 52.551378,7.17068 C46.817078,7.47076 41.748278,9.59684 37.071518,12.7787 C35.536798,13.82304 34.091618,14.99894 32.588358,16.12754 C30.738158,14.56598 28.688858,14.65882 26.587198,15.42772 C25.870438,15.68996 25.030698,15.90512 25.205598,17.02316 C25.240578,17.24822 24.916078,17.51266 24.811138,17.77996 C24.638658,18.22062 24.510178,18.67844 24.315478,19.27442 C26.643958,18.74422 28.654758,17.65368 30.860258,18.61288" id="Fill-16" fill="#424242" mask="url(#mask-10)"></path>
                                    </g>
                                    <g id="Group-21">
                                        <mask id="mask-12" fill="white">
                                            <use xlink:href="#path-11"></use>
                                        </mask>
                                        <g id="Clip-20"></g>
                                        <path d="M59.941596,61.18717 C60.606216,62.08609 61.449256,62.85301 62.215076,63.67691 C61.949976,61.74289 60.662316,60.57227 59.342976,59.40407 C58.996036,59.09651 58.736876,58.64837 58.543716,58.21717 C58.121096,57.27557 57.648316,56.42219 56.423136,56.26951 C56.638076,56.81401 57.089076,57.21705 57.295656,57.72041 C57.503336,58.22685 57.467916,58.83295 57.538756,59.39505 C57.039136,59.38537 56.528516,59.43377 56.042536,59.34665 C55.661276,59.27823 55.310376,59.04173 54.871916,58.84703 L54.871916,60.47701 C53.778516,60.95947 52.729336,61.59659 51.591716,61.88149 C50.089996,62.25769 49.289416,60.79865 48.154876,60.20003 C46.581216,59.36953 47.404896,57.79279 47.118896,56.50623 C46.800776,56.91037 46.624336,57.31451 46.506416,57.73559 C46.372656,58.21255 46.291476,58.70403 46.169156,59.27515 C45.737956,59.13743 45.176736,59.01533 45.183336,58.95197 C45.274196,58.07153 45.443156,57.19945 45.639176,56.05523 C45.162656,56.55507 44.630256,56.86725 44.498256,57.30153 C44.192236,58.30781 43.480976,58.93305 42.803376,59.64233 C42.066156,60.41365 41.458516,61.29563 41.650356,62.71353 C42.094756,62.03285 42.325756,61.46393 42.739356,61.10599 C43.147016,60.75267 43.739476,60.61319 44.280896,60.36613 C44.718036,60.61539 45.246476,60.91701 45.776236,61.21929 C45.777116,61.23249 45.777776,61.24437 45.778876,61.25713 C45.785036,61.24921 45.791636,61.24129 45.798016,61.23337 C45.795816,61.23051 45.774696,61.19927 45.774696,61.19927 C46.120316,61.37461 46.465716,61.54951 46.810676,61.72441 C45.439196,64.40225 44.885676,67.08691 45.600676,67.93809 C45.844216,66.92015 46.000856,65.95017 46.316556,65.03519 C46.626316,64.13825 47.097996,63.29719 47.498616,62.43127 C47.604656,62.47395 47.710696,62.51641 47.816516,62.55887 C47.429096,64.08017 46.496736,65.51105 46.855336,67.37863 C48.038936,65.97987 47.459016,63.99591 49.050496,62.83585 C48.961176,63.32953 48.906176,63.63445 48.870096,63.83355 C49.565956,63.64897 50.304496,63.20413 50.816216,63.38849 C51.311436,63.56669 51.573676,64.39301 51.841196,64.79099 C52.071316,64.37409 52.318596,63.92595 52.565876,63.47781 C52.897636,63.91451 53.370196,64.30567 53.529916,64.79803 C53.806456,65.64987 53.889176,66.56463 54.053076,67.45321 C54.149876,67.44837 54.246456,67.44353 54.343256,67.43869 C54.269336,65.92619 54.195196,64.41347 54.121276,62.90075 C54.230836,62.87699 54.340616,62.85301 54.450176,62.82925 C54.851016,63.70419 55.252296,64.57935 55.653356,65.45429 C55.760056,65.41117 55.866976,65.36783 55.974116,65.32471 C55.671396,64.30105 55.368676,63.27739 55.025476,62.11799 C56.414336,62.33975 57.391356,61.60429 58.322836,60.94671 C59.071936,60.41783 59.404356,60.46029 59.941596,61.18717" id="Fill-19" fill="#424242" mask="url(#mask-12)"></path>
                                    </g>
                                    <g id="Group-24">
                                        <mask id="mask-14" fill="white">
                                            <use xlink:href="#path-13"></use>
                                        </mask>
                                        <g id="Clip-23"></g>
                                        <path d="M62.297356,73.30114 C62.555196,73.88634 63.083196,74.34812 63.458516,74.88712 C63.672576,75.19424 63.822836,75.5458 64.001696,75.87756 C62.164476,75.42326 61.567836,73.77612 60.402056,72.65808 C61.339476,72.20202 61.892556,72.38242 62.297356,73.30114 M63.031716,76.96238 C63.557296,77.5654 64.095856,78.23024 64.774116,78.6005 C65.205536,78.83568 66.071236,78.78992 66.440836,78.49402 C66.910756,78.11738 67.213476,77.3795 67.301696,76.7569 C67.335576,76.51886 66.619916,76.04454 66.172876,75.89252 C64.818996,75.43272 63.789836,74.63852 63.130936,73.36846 C62.605136,72.35492 62.871996,71.7904 64.115216,71.47228 C64.059116,70.6332 64.007856,69.86386 63.956596,69.09452 C64.058236,69.08968 64.159876,69.08528 64.261516,69.08044 C64.432896,69.94988 64.604276,70.8191 64.782916,71.72484 C66.396836,70.7916 66.516076,68.3045 65.003796,66.60742 C65.027996,67.13652 65.068256,67.51844 65.057036,67.89904 C65.045596,68.28602 64.983776,68.67146 64.914916,69.33828 C64.058456,67.6038 64.036236,65.76152 62.409116,64.68528 C62.270296,65.22186 62.166456,65.62358 62.077136,65.9692 C61.452776,65.22142 60.839856,64.48728 60.226936,63.75314 C60.142896,63.81188 60.058856,63.87084 59.974596,63.92958 C60.709176,65.59146 61.443536,67.25334 62.178116,68.91522 C62.230036,68.89762 62.282396,68.88002 62.334536,68.86242 L62.334536,66.59092 C62.646716,66.84502 62.907196,66.95018 62.950756,67.11276 C63.081656,67.60468 63.181096,68.11816 63.188796,68.62482 C63.193636,68.9447 63.073516,69.49492 62.902136,69.54068 C62.571256,69.62912 62.110796,69.52198 61.802356,69.33454 C61.384796,69.08066 61.059416,68.6752 60.592576,68.23938 C60.569256,68.71392 60.554076,69.02038 60.532516,69.46368 C60.151696,68.95526 59.856676,68.56168 59.561876,68.1681 C59.485756,68.20352 59.409636,68.23894 59.333296,68.27436 C59.366736,68.6488 59.399956,69.02302 59.438676,69.45664 C59.207896,69.27294 59.049496,69.14688 58.745016,68.90444 C58.591016,70.3153 58.456376,71.55038 58.321736,72.78524 C58.443176,72.73134 58.564836,72.67744 58.686716,72.62354 C59.225276,72.96916 59.861956,73.22392 60.283256,73.67866 C61.252136,74.72432 62.093636,75.88636 63.031716,76.96238" id="Fill-22" fill="#424242" mask="url(#mask-14)"></path>
                                    </g>
                                    <g id="Group-27">
                                        <mask id="mask-16" fill="white">
                                            <use xlink:href="#path-15"></use>
                                        </mask>
                                        <g id="Clip-26"></g>
                                        <path d="M40.035248,71.647686 C40.219608,71.271926 40.375148,70.955346 40.408148,70.888246 C41.033388,70.753606 41.418388,70.670886 41.788648,70.591026 C41.828248,70.813226 41.879288,71.099666 41.958708,71.546046 C42.262748,71.126946 42.449528,70.869766 42.484068,70.822026 C43.177288,71.263786 43.824528,71.735906 44.532048,72.086806 C44.718828,72.179646 45.091288,71.898486 45.361228,71.795306 C45.386748,71.921586 45.439108,72.180086 45.518748,72.573446 C45.943128,72.199446 46.259708,71.920266 46.559128,71.656486 C47.912348,72.150386 48.275568,71.886826 48.108148,70.578926 C47.344528,70.752066 47.124088,70.493126 47.016288,69.264866 C46.710928,69.453406 46.419208,69.633806 46.089208,69.837526 C46.151688,69.164326 46.206688,68.571646 46.261908,67.978746 C46.172368,67.935846 46.082828,67.892946 45.993288,67.849826 C45.664388,68.231306 45.335488,68.612566 44.943448,69.067306 C44.856108,68.361546 44.531828,68.261446 43.952568,68.965886 C44.215028,67.460206 44.432168,66.213246 44.649528,64.966066 C44.218768,65.322906 43.948388,65.755206 43.863688,66.221386 C43.674708,67.263086 43.595068,68.324366 43.428968,69.370906 C43.397728,69.567366 43.171568,69.732806 43.035608,69.912546 C42.959708,69.864806 42.883808,69.816846 42.807908,69.769106 C42.948928,68.429086 43.089948,67.089286 43.230968,65.749266 L42.828808,65.534106 C42.143508,66.377366 41.458428,67.220406 40.773348,68.063666 C40.678088,68.032206 40.583048,68.001186 40.487788,67.969946 C40.767188,66.310046 41.046588,64.650366 41.336768,62.925786 C40.306948,62.889926 40.154268,63.488546 40.100368,64.241826 C40.042948,65.045266 39.911608,65.843646 39.812608,66.644446 C39.708548,66.627066 39.604268,66.609906 39.499988,66.592526 C39.474468,66.187066 39.448728,65.781386 39.423208,65.375706 C38.903128,66.304986 38.569608,67.262646 38.376008,68.248026 C37.940848,70.459906 37.969228,70.465406 40.035248,71.647686" id="Fill-25" fill="#424242" mask="url(#mask-16)"></path>
                                    </g>
                                    <g id="Group-30">
                                        <mask id="mask-18" fill="white">
                                            <use xlink:href="#path-17"></use>
                                        </mask>
                                        <g id="Clip-29"></g>
                                        <path d="M51.913312,88.662662 C56.586552,88.424182 60.387052,84.704422 60.050892,80.458422 C58.306072,83.692642 56.355992,86.582562 52.509072,86.975922 C48.515192,87.384462 46.193532,84.652282 43.924452,81.800862 C43.995292,85.519082 47.977732,88.863522 51.913312,88.662662" id="Fill-28" fill="#424242" mask="url(#mask-18)"></path>
                                    </g>
                                    <g id="Group-33">
                                        <mask id="mask-20" fill="white">
                                            <use xlink:href="#path-19"></use>
                                        </mask>
                                        <g id="Clip-32"></g>
                                        <path d="M27.445506,24.095038 C27.345846,24.033658 27.109786,23.888458 26.936646,23.781758 C27.106706,23.752058 27.340126,23.711358 27.683546,23.651298 C27.448806,23.283238 27.277206,23.014178 27.102526,22.740278 C27.449906,22.648978 27.724026,22.577038 27.998146,22.504878 C27.991546,22.364078 27.985166,22.223058 27.978566,22.082258 C27.242226,22.046398 26.505886,22.010978 25.769326,21.975338 C25.759206,21.923418 25.749086,21.871718 25.738746,21.819798 C26.757786,21.646218 27.776606,21.472418 28.692246,21.316438 C28.984406,20.623438 29.275026,19.933738 29.566966,19.241398 C28.003646,18.572378 25.201066,19.117538 24.225366,20.526638 C23.700886,21.284318 23.470326,22.245058 23.052326,23.244738 C23.480226,23.167518 23.742906,23.119998 23.866546,23.097558 C23.230086,24.454958 22.574706,25.852618 21.837486,27.424518 C23.815066,26.250378 25.534586,25.229358 27.445506,24.095038" id="Fill-31" fill="#424242" mask="url(#mask-20)"></path>
                                    </g>
                                    <g id="Group-36">
                                        <mask id="mask-22" fill="white">
                                            <use xlink:href="#path-21"></use>
                                        </mask>
                                        <g id="Clip-35"></g>
                                        <path d="M79.521376,25.633542 C78.514216,25.050322 77.513216,24.453682 76.478116,23.924142 C76.266696,23.815902 75.918216,23.975182 75.632656,24.011262 C75.635956,24.095302 75.639256,24.179342 75.642336,24.263382 C76.045376,24.504722 76.448196,24.746062 76.948696,25.045702 C76.778196,25.178362 76.665556,25.265922 76.552916,25.353482 C77.312576,25.983782 78.072236,26.614082 79.015816,27.396842 C78.203356,27.077402 77.606276,26.842882 77.008976,26.608142 C76.945836,26.730022 76.882916,26.852342 76.819776,26.974222 C77.474716,27.393982 78.115576,27.838602 78.788336,28.228222 C80.036616,28.950922 80.181596,29.088862 80.309196,29.862162 C79.562516,29.476942 78.781076,29.073682 77.999416,28.670422 C77.921316,28.770302 77.842996,28.870182 77.765116,28.970062 C78.106776,29.379042 78.448876,29.788022 78.767216,30.169062 C77.346016,30.737762 78.929576,31.122102 78.966096,31.567382 C79.078076,32.933362 80.483216,33.364122 81.546476,34.319802 C81.546476,32.742182 81.741396,31.400842 81.494776,30.146182 C81.217356,28.734002 80.553836,27.395522 80.026056,26.037682 C79.958076,25.863002 79.708596,25.742002 79.521376,25.633542" id="Fill-34" fill="#424242" mask="url(#mask-22)"></path>
                                    </g>
                                    <g id="Group-39">
                                        <mask id="mask-24" fill="white">
                                            <use xlink:href="#path-23"></use>
                                        </mask>
                                        <g id="Clip-38"></g>
                                        <path d="M67.860936,52.972612 C67.525876,53.165332 67.179376,53.360472 66.837276,53.562212 C66.175736,53.951832 65.601536,54.359052 64.832856,53.578492 C64.383176,53.121772 63.602176,52.938732 63.115756,53.610392 C63.933716,54.251692 64.699536,54.880452 65.500996,55.460152 C65.694816,55.600072 66.025476,55.663212 66.259116,55.610192 C66.626736,55.526812 66.965536,55.315392 67.581096,55.039732 C66.802516,56.322332 65.262956,56.670592 64.218616,55.813472 C63.397136,55.139612 62.783996,54.192732 62.150616,53.315152 C61.719636,52.718072 61.413396,52.031012 61.051496,51.384212 C60.837216,51.820472 60.697736,52.262892 60.859876,52.496532 C61.922916,54.029712 62.954716,55.604472 64.197936,56.984532 C64.834836,57.691612 67.552056,57.141832 68.201276,56.411872 C68.711236,55.838332 68.523356,53.739752 67.860936,52.972612" id="Fill-37" fill="#424242" mask="url(#mask-24)"></path>
                                    </g>
                                    <g id="Group-42">
                                        <mask id="mask-26" fill="white">
                                            <use xlink:href="#path-25"></use>
                                        </mask>
                                        <g id="Clip-41"></g>
                                        <path d="M37.684306,55.179696 C39.910266,56.183556 44.315106,54.124136 43.969266,50.968676 C43.333466,51.422096 42.691726,51.879476 42.049986,52.336856 L42.085406,52.299456 C42.073966,52.300116 42.062306,52.300776 42.050866,52.301216 L42.050866,52.320356 C40.082086,53.565776 38.074366,53.749696 36.015606,52.480956 C35.992066,53.782476 36.572426,54.678316 37.684306,55.179696" id="Fill-40" fill="#424242" mask="url(#mask-26)"></path>
                                    </g>
                                    <g id="Group-45">
                                        <mask id="mask-28" fill="white">
                                            <use xlink:href="#path-27"></use>
                                        </mask>
                                        <g id="Clip-44"></g>
                                        <path d="M47.347982,48.10652 C48.129422,48.10652 48.668422,48.10278 49.207422,48.10718 C51.309522,48.1239 53.447702,47.78752 55.442002,48.83472 C55.687522,48.96364 56.094082,48.78478 56.580942,48.73154 C54.770562,46.6631 49.657102,46.32628 47.347982,48.10652" id="Fill-43" fill="#424242" mask="url(#mask-28)"></path>
                                    </g>
                                    <g id="Group-48">
                                        <mask id="mask-30" fill="white">
                                            <use xlink:href="#path-29"></use>
                                        </mask>
                                        <g id="Clip-47"></g>
                                        <path d="M55.156376,71.612244 C55.262196,71.888564 55.362736,72.150584 55.463496,72.413044 C55.540496,72.401164 55.617716,72.389504 55.694716,72.377624 C55.732996,72.180284 55.771056,71.983164 55.809336,71.785824 C55.861476,72.945004 56.423356,73.436264 57.317656,73.013644 C58.055756,72.664944 58.191276,71.983384 57.936076,71.346484 C57.791316,70.985024 57.225036,70.811444 56.905376,70.495964 C56.626416,70.220084 56.389036,69.884144 56.202696,69.537204 C56.013276,69.184984 55.908776,68.787004 55.766876,68.409044 C55.446336,69.521364 55.400136,69.481764 54.551376,70.476384 C54.325876,70.740604 54.479216,71.328664 54.452376,71.907704 C54.827916,71.750184 55.000396,71.677804 55.156376,71.612244" id="Fill-46" fill="#424242" mask="url(#mask-30)"></path>
                                    </g>
                                    <g id="Group-51">
                                        <mask id="mask-32" fill="white">
                                            <use xlink:href="#path-31"></use>
                                        </mask>
                                        <g id="Clip-50"></g>
                                        <path d="M55.880396,44.156618 C55.353936,40.792378 54.812516,37.333538 54.271316,33.874698 C54.328296,37.423298 53.834176,41.066058 55.880396,44.156618" id="Fill-49" fill="#424242" mask="url(#mask-32)"></path>
                                    </g>
                                    <g id="Group-54">
                                        <mask id="mask-34" fill="white">
                                            <use xlink:href="#path-33"></use>
                                        </mask>
                                        <g id="Clip-53"></g>
                                        <path d="M78.419,23.001044 C77.3113,22.314644 76.15234,21.527484 74.82574,22.095964 C76.54768,23.053624 78.28238,24.018324 80.1009,25.029664 C80.21024,23.913164 79.19384,23.481304 78.419,23.001044" id="Fill-52" fill="#424242" mask="url(#mask-34)"></path>
                                    </g>
                                    <g id="Group-57">
                                        <mask id="mask-36" fill="white">
                                            <use xlink:href="#path-35"></use>
                                        </mask>
                                        <g id="Clip-56"></g>
                                        <path d="M47.237872,47.12521 C49.283652,46.74395 51.336692,46.36137 53.389512,45.97879 C53.365092,45.87649 53.340452,45.77419 53.315812,45.67211 C50.499372,45.25477 48.146912,45.82237 47.237872,47.12521" id="Fill-55" fill="#424242" mask="url(#mask-36)"></path>
                                    </g>
                                    <g id="Group-60">
                                        <mask id="mask-38" fill="white">
                                            <use xlink:href="#path-37"></use>
                                        </mask>
                                        <g id="Clip-59"></g>
                                        <path d="M52.026326,71.062024 C52.205186,71.366944 52.344446,71.604324 52.483706,71.841704 C52.540686,71.822784 52.597446,71.803864 52.654206,71.785164 C52.468746,70.396964 52.283066,69.008764 52.097386,67.620344 C51.987826,67.633544 51.878486,67.646964 51.768926,67.659944 C51.768926,67.876864 51.749346,68.095984 51.772446,68.310044 C51.871446,69.232504 51.865946,70.067404 50.912686,70.653484 C50.616126,70.835864 50.553426,71.398844 50.276006,72.033764 C50.893986,71.912764 51.214966,71.928824 51.432106,71.786484 C51.673446,71.628084 51.820186,71.325364 52.026326,71.062024" id="Fill-58" fill="#424242" mask="url(#mask-38)"></path>
                                    </g>
                                    <g id="Group-63">
                                        <mask id="mask-40" fill="white">
                                            <use xlink:href="#path-39"></use>
                                        </mask>
                                        <g id="Clip-62"></g>
                                        <path d="M53.635494,74.055872 C53.742634,74.054992 53.850214,74.053892 53.957354,74.053012 L53.957354,68.200572 C53.757814,68.544212 53.505254,68.978272 53.279754,69.366572 C53.396354,70.904372 53.516034,72.480232 53.635494,74.055872" id="Fill-61" fill="#424242" mask="url(#mask-40)"></path>
                                    </g>
                                    <g id="Group-66">
                                        <mask id="mask-42" fill="white">
                                            <use xlink:href="#path-41"></use>
                                        </mask>
                                        <g id="Clip-65"></g>
                                        <path d="M74.264366,57.326434 C74.497126,56.440274 74.991906,55.616594 74.082866,54.706454 C72.724366,56.402214 72.735366,56.606814 74.264366,57.326434" id="Fill-64" fill="#424242" mask="url(#mask-42)"></path>
                                    </g>
                                    <g id="Group-69">
                                        <mask id="mask-44" fill="white">
                                            <use xlink:href="#path-43"></use>
                                        </mask>
                                        <g id="Clip-68"></g>
                                        <path d="M36.714304,70.616876 C36.868084,70.225276 37.010204,69.828616 37.180264,69.444056 C37.282784,69.211736 37.374964,68.920456 37.564604,68.790656 C38.274324,68.304016 38.365624,67.655456 37.716184,66.826056 C37.271564,68.079616 36.202364,69.062356 36.372644,70.482456 C36.486604,70.527336 36.600344,70.571996 36.714304,70.616876" id="Fill-67" fill="#424242" mask="url(#mask-44)"></path>
                                    </g>
                                    <g id="Group-72">
                                        <mask id="mask-46" fill="white">
                                            <use xlink:href="#path-45"></use>
                                        </mask>
                                        <g id="Clip-71"></g>
                                        <path d="M57.737284,62.469352 C58.191144,63.469692 58.642144,64.463872 59.093364,65.458272 C59.649084,63.604332 58.933424,62.315792 57.737284,62.469352" id="Fill-70" fill="#424242" mask="url(#mask-46)"></path>
                                    </g>
                                    <g id="Group-75">
                                        <mask id="mask-48" fill="white">
                                            <use xlink:href="#path-47"></use>
                                        </mask>
                                        <g id="Clip-74"></g>
                                        <path d="M58.670788,66.078738 C58.421968,64.888318 58.295468,63.632778 56.792208,63.104338 L58.346728,66.241978 C58.454968,66.187638 58.562988,66.133298 58.670788,66.078738" id="Fill-73" fill="#424242" mask="url(#mask-48)"></path>
                                    </g>
                                    <g id="Group-78">
                                        <mask id="mask-50" fill="white">
                                            <use xlink:href="#path-49"></use>
                                        </mask>
                                        <g id="Clip-77"></g>
                                        <path d="M50.302186,30.4282 L50.302186,33.70246 C50.861426,32.60048 51.096166,31.50334 50.302186,30.4282" id="Fill-76" fill="#424242" mask="url(#mask-50)"></path>
                                    </g>
                                    <g id="Group-81">
                                        <mask id="mask-52" fill="white">
                                            <use xlink:href="#path-51"></use>
                                        </mask>
                                        <g id="Clip-80"></g>
                                        <path d="M42.587578,62.161264 C42.388918,62.968664 41.230398,63.474884 41.910858,64.592704 C43.186198,63.084164 43.282558,62.748224 42.587578,62.161264" id="Fill-79" fill="#424242" mask="url(#mask-52)"></path>
                                    </g>
                                    <g id="Group-84">
                                        <mask id="mask-54" fill="white">
                                            <use xlink:href="#path-53"></use>
                                        </mask>
                                        <g id="Clip-83"></g>
                                        <path d="M43.395286,63.894842 C43.748826,63.558242 44.102586,63.221642 44.456126,62.885262 C44.499466,62.514122 44.543906,62.141662 44.600006,61.670422 C43.386266,62.010762 43.394186,62.927062 43.395286,63.894842" id="Fill-82" fill="#424242" mask="url(#mask-54)"></path>
                                    </g>
                                    <g id="Group-87">
                                        <mask id="mask-56" fill="white">
                                            <use xlink:href="#path-55"></use>
                                        </mask>
                                        <g id="Clip-86"></g>
                                        <path d="M44.456192,62.885284 C44.455972,62.886824 44.455752,62.888584 44.455532,62.889904 C44.455972,62.889904 44.458612,62.886824 44.462572,62.882644 C44.473352,62.871424 44.492932,62.850304 44.492932,62.850304 C44.492932,62.850524 44.492712,62.850524 44.492712,62.850524 L44.493812,62.849204 C44.495132,63.105284 44.495132,63.362464 44.495132,63.672444 C45.651452,62.856464 45.866612,62.444844 45.778832,61.257284 C45.343892,61.797164 44.906972,62.334624 44.470932,62.871204 C44.465872,62.875824 44.461032,62.880664 44.456192,62.885284" id="Fill-85" fill="#424242" mask="url(#mask-56)"></path>
                                    </g>
                                    <g id="Group-90">
                                        <mask id="mask-58" fill="white">
                                            <use xlink:href="#path-57"></use>
                                        </mask>
                                        <g id="Clip-89"></g>
                                        <path d="M67.178166,68.429988 C67.015366,68.447588 66.852786,68.465408 66.689986,68.483228 C66.781286,69.361468 66.872586,70.239928 66.963886,71.118388 C67.112826,71.100788 67.261546,71.083408 67.410486,71.065588 C67.332826,70.187128 67.255606,69.308448 67.178166,68.429988" id="Fill-88" fill="#424242" mask="url(#mask-58)"></path>
                                    </g>
                                    <g id="Group-93">
                                        <mask id="mask-60" fill="white">
                                            <use xlink:href="#path-59"></use>
                                        </mask>
                                        <g id="Clip-92"></g>
                                        <path d="M40.852196,51.641546 C40.520436,51.708646 40.199456,51.829646 39.572896,52.016866 C40.073836,52.236426 40.231576,52.364026 40.389756,52.364466 C40.943496,52.366006 41.497236,52.326406 42.050756,52.301326 C42.051416,52.028746 42.051416,51.757486 42.051416,51.498986 C41.544756,51.556406 41.193196,51.572686 40.852196,51.641546" id="Fill-91" fill="#424242" mask="url(#mask-60)"></path>
                                    </g>
                                    <g id="Group-96">
                                        <mask id="mask-62" fill="white">
                                            <use xlink:href="#path-61"></use>
                                        </mask>
                                        <g id="Clip-95"></g>
                                        <path d="M75.179808,49.044402 C74.515188,49.576582 73.921188,50.052222 73.327188,50.527642 C74.830228,50.634782 75.317088,50.209082 75.179808,49.044402" id="Fill-94" fill="#424242" mask="url(#mask-62)"></path>
                                    </g>
                                    <g id="Group-99">
                                        <mask id="mask-64" fill="white">
                                            <use xlink:href="#path-63"></use>
                                        </mask>
                                        <g id="Clip-98"></g>
                                        <path d="M48.707736,71.523298 C49.327036,70.813578 49.573656,70.036538 48.964476,69.100218 C48.767136,69.886278 48.569576,70.672118 48.372236,71.458178 C48.483996,71.479958 48.595976,71.501518 48.707736,71.523298" id="Fill-97" fill="#424242" mask="url(#mask-64)"></path>
                                    </g>
                                    <g id="Group-102">
                                        <mask id="mask-66" fill="white">
                                            <use xlink:href="#path-65"></use>
                                        </mask>
                                        <g id="Clip-101"></g>
                                        <path d="M80.372578,41.040934 C80.490938,42.503494 81.009038,43.067574 82.408678,43.223554 C81.684438,42.447174 81.104738,41.825894 80.372578,41.040934" id="Fill-100" fill="#424242" mask="url(#mask-66)"></path>
                                    </g>
                                    <g id="Group-105">
                                        <mask id="mask-68" fill="white">
                                            <use xlink:href="#path-67"></use>
                                        </mask>
                                        <g id="Clip-104"></g>
                                        <path d="M49.369342,71.77874 C49.484622,71.81086 49.599902,71.84254 49.715182,71.87466 C50.531602,71.33874 50.345482,70.51132 49.966642,69.6487 C49.767542,70.35886 49.568442,71.06858 49.369342,71.77874" id="Fill-103" fill="#424242" mask="url(#mask-68)"></path>
                                    </g>
                                    <g id="Group-108">
                                        <mask id="mask-70" fill="white">
                                            <use xlink:href="#path-69"></use>
                                        </mask>
                                        <g id="Clip-107"></g>
                                        <path d="M73.546792,84.857564 C72.458012,85.705444 72.684392,86.969344 72.595072,88.107404 C72.263312,92.341524 71.970932,96.578504 71.700552,100.817024 C71.668652,101.318624 71.864232,101.834964 71.954432,102.344264 C72.027472,102.326884 72.100732,102.309284 72.173992,102.291684 C72.279592,100.040644 72.385632,97.789384 72.491232,95.538344 C72.593752,95.544504 72.696492,95.550884 72.799232,95.557264 C72.675372,97.553324 72.551732,99.549604 72.421052,101.656544 C73.041012,100.984004 73.972272,85.677064 73.546792,84.857564" id="Fill-106" fill="#424242" mask="url(#mask-70)"></path>
                                    </g>
                                    <g id="Group-111">
                                        <mask id="mask-72" fill="white">
                                            <use xlink:href="#path-71"></use>
                                        </mask>
                                        <g id="Clip-110"></g>
                                        <path d="M69.008434,105.394498 C69.306314,100.303038 69.590774,95.437958 69.875454,90.572658 C69.700334,90.538338 69.525214,90.503578 69.349874,90.469038 C69.147474,91.142458 68.821874,91.805098 68.762914,92.491058 C68.411574,96.561938 68.115014,100.637878 67.820434,104.713378 C67.784354,105.214978 67.869494,105.725158 67.898534,106.231378 C67.999514,106.226758 68.100494,106.222578 68.201694,106.217958 C68.328634,104.664318 68.455354,103.110678 68.582294,101.557038 C69.163534,102.768798 67.867074,103.986058 69.008434,105.394498" id="Fill-109" fill="#424242" mask="url(#mask-72)"></path>
                                    </g>
                                </g>
                            </g>
                            <path d="M110,55.0001147 C110,85.3758609 85.3756314,110.000229 55.0001147,110.000229 C24.6241391,110.000229 0,85.3758609 0,55.0001147 C0,24.6243686 24.6241391,0 55.0001147,0 C85.3756314,0 110,24.6243686 110,55.0001147 Z M105.6,55 C105.6,27.0543727 82.9455786,4.4 55.0001087,4.4 C27.0544214,4.4 4.4,27.0543727 4.4,55 C4.4,82.9456273 27.0544214,105.6 55.0001087,105.6 C82.9455786,105.6 105.6,82.9456273 105.6,55 Z" id="Combined-Shape" fill="#424242" fill-rule="evenodd"></path>
                        </g>
                    </g>
                </g>
            </g>
        </g>
    </g>
</svg>